<svg xmlns="http://www.w3.org/2000/svg" xml:space="preserve" id="Businessmanisdistributingbonusamongemployees" x="0" y="0" enable-background="new 0 0 3000 3000" version="1.1" viewBox="0 0 3000 3000">
  <g fill="#000000" class="color000000 svgShape">
    <g fill="#000000" class="color000000 svgShape">
      <ellipse cx="1597.2" cy="2752.2" fill="#ededed" rx="1176.4" ry="139" class="colorededed svgShape"></ellipse>
      <path fill="#fdb3bb" d="M2496.1,1800.6l110.2-20.9c12-2.3,24.1-3.4,36.3-3.8c37.1-1.1,130.4-15,136.8-125.2
			c1-16.9-17.2-28.2-31.6-19.3c-25.6,16-71,40.4-92.6,31.3l21.1-43.7c3.9-8.2,0.2-18-8.2-21.5l0,0c-6.6-2.7-14.1-0.7-18.4,4.9
			l-35.6,45.6c-8.7,11.1-20.7,19.3-34.3,23.1l-99.8,28.6" class="colorfdbab3 svgShape"></path>
      <path fill="#5e5859" d="M1689.2,1958l361.8-9c16.8-0.4,33.4-2.6,49.7-6.7l512.7-149.4l-28.4-136.4l-511,104
			c-23.4,3.6-47.3,2.9-70.6-1.9l-357.2-94.8l-26.4,35.6l-12.3,188.1L1689.2,1958z" class="color585a5e svgShape"></path>
      <g fill="#000000" class="color000000 svgShape">
        <path fill="#fdb3bb" d="M658.1,1803.3l-110.2-20.9c-12-2.3-24.1-3.4-36.3-3.8c-37.1-1.1-130.4-15-136.8-125.2
				c-1-16.9,17.2-28.2,31.6-19.3c25.6,16,71,40.4,92.6,31.3l-21.1-43.7c-3.9-8.2-0.2-18,8.2-21.5l0,0c6.6-2.7,14.1-0.7,18.4,4.9
				l35.6,45.6c8.7,11.1,20.7,19.3,34.3,23.1l99.8,28.6" class="colorfdbab3 svgShape"></path>
        <path fill="#5e5859" d="M1465,1960.7l-361.8-9c-16.8-0.4-33.4-2.6-49.7-6.7l-512.7-149.4l28.4-136.4l511,104
				c23.4,3.6,47.3,2.9,70.6-1.9l357.2-94.8l26.4,35.6l12.3,188.1L1465,1960.7z" class="color585a5e svgShape"></path>
      </g>
      <g fill="#000000" class="color000000 svgShape">
        <rect width="144" height="257.2" x="1517.8" y="1512" fill="#fdb3bb" class="colorfdbab3 svgShape"></rect>
        <path fill="#fdb3bb" d="M1766.1,1472.5c16.5,108.3-60.3,175.2-135.4,175.2c-75.1,0-136.5-76.8-136.5-175.2
				c0-98.4,60.9-178.2,136-178.2C1705.2,1294.3,1751.3,1375.2,1766.1,1472.5z" class="colorfdbab3 svgShape"></path>
        <path fill="#434141" d="M1695.8,1285c-60.6-48.8-112.4-4.7-112.4-4.7c-89.1-24.7-103.4,73.5-103.4,73.5
				c-102.1-2.7,37.9,245.3,37.9,245.3l9.5-33.1c4.8-17,4-35.3-3-51.5c-13.6-31.2-17-69.5,15.4-74.7c28.2-4.5,43.3,37.8,48.9,58.3
				c1.6,5.9,7.6,9.4,13.5,7.9l0,0c5.6-1.4,9.2-6.8,8.3-12.5l-12.6-82.2c40.1,12.1,119.5-2.7,136.7-8.9c0,0,73.5-22.7,61.1-100.4
				c0,0-9.6,19.6-49.5,21c0,0,32.9-7.6,28.9-54.6C1774.9,1268.3,1731.3,1313.6,1695.8,1285z" class="color414143 svgShape"></path>
      </g>
      <g fill="#000000" class="color000000 svgShape">
        <path fill="#e5e5e5" d="M1782.6,2146.5c0,4.7,0,518.9,0,518.9c-158.8,75.9-304,19.5-303.7,20.7l7.7-874.2l31.4-149.4l112.7,75.2
				l70.8-59.2l45.4,40l9.4,204C1756.2,1922.5,1782.6,2141.9,1782.6,2146.5z" class="colore5e5e5 svgShape"></path>
        <path fill="#5e5859" d="M1291.9 2722.3c-4.5 19.4-.3 39.3 19 44.3 0 0 258.9 44.8 281.3-270.1 4.3-60.2-8.1-120-31.8-175.5-45.4-106.1 17.9-219 29.8-349.7 7.1-78.4-24.5-161.4-16.9-236.7 2.4-24.2-27.2-40.2-45.1-56.9l-10.2-15.2-76.3 32c-84 40.8-156.4 117.1-151.3 210.3l22.8 258.5C1320.1 2307 1301.9 2679.6 1291.9 2722.3zM1661.8 1667.9l39.6 10.6c61.3 17.9 211.7 104 211.7 166.5-31.8 215.4-20.5 492.3 17.5 770.5 3 22.5-7.5 31.5-33.7 47l-156.3 65.4c-16.6 4-30.1-13.5-22.1-28.6v0c29.5-55.1 42-173.8 36-236.1-56.4-118.8-69.7-239.5-35.2-362.2-.5-5.4-.3-12.9.4-22 9.1-112-1.7-224.6-34.1-332.2L1661.8 1667.9z" class="color585a5e svgShape"></path>
      </g>
      <polygon fill="#cdc6c7" points="1661.8 1667.9 1676.5 1763.9 1590.9 1771.5 1517.9 1662.6 1630.6 1737.7" class="colorc6c7cd svgShape"></polygon>
      <path fill="#434141" d="M1767.2,1521.2L1767.2,1521.2l-150.4-8.1l-9.3-38.4l-24.2,7l20.7,109.5c6.6,34.9,39.7,58.4,74.9,53l0,0
			C1736.8,1635.2,1773.5,1579.6,1767.2,1521.2z" class="color414143 svgShape"></path>
      <g fill="#000000" class="color000000 svgShape">
        <path fill="#75343b" d="M2017.8,2657.8c0,0,59.5,11.3,151-1.1c25.4-3.4,51.5,1.2,73.5,14.4c25.7,15.3,50.2,43.8,45.7,96.3
				c0,0-3.8,78.5-93.9,76.4c-21.5-0.5-42.5-5.8-62.2-14.5c-41.6-18.5-141.2-66.1-191.9-63.7L2017.8,2657.8z" class="color754b34 svgShape"></path>
        <path fill="#973d47" d="M1994,2651.3c0,0,60.3,13.4,151.8,1c25.4-3.4,51.3,0.9,72.8,12.3c26.4,14,50.2,43.8,45.7,96.3
				c0,0-3.8,78.5-93.9,76.4c-21.5-0.5-42.5-5.8-62.2-14.5c-41.6-18.5-144.5-61.6-195.1-59.2L1994,2651.3z" class="color97623d svgShape"></path>
      </g>
      <g fill="#000000" class="color000000 svgShape">
        <path fill="#75343b" d="M1221.8,2657.8c0,0-59.5,11.3-151-1.1c-25.4-3.4-51.5,1.2-73.5,14.4c-25.7,15.3-50.2,43.8-45.7,96.3
				c0,0,3.8,78.5,93.9,76.4c21.5-0.5,42.5-5.8,62.2-14.5c41.6-18.5,141.2-66.1,191.9-63.7L1221.8,2657.8z" class="color754b34 svgShape"></path>
        <path fill="#973d47" d="M1245.6,2651.3c0,0-60.2,13.4-151.8,1c-25.4-3.4-51.3,0.9-72.8,12.3c-26.4,14-50.2,43.8-45.7,96.3
				c0,0,3.8,78.5,93.9,76.4c21.5-0.5,42.5-5.8,62.2-14.5c41.6-18.5,144.5-61.6,195.1-59.2L1245.6,2651.3z" class="color97623d svgShape"></path>
      </g>
      <path fill="#434141" d="M1199.4,2656.7c0,0,85.8-16.1,263.9-105.3c8.2-4.1,16.3-8.5,24.3-13.1c64-36.2,406.1-221.3,664.2-187.3
			c38.1,5,72.6,26.1,92.6,58.9c27.8,45.4,31.8,117-108.5,199.9c-7.3,4.3-15,7.9-23.1,10.7c-61.8,21.7-357.1,121.4-588,130.7
			c0,0-59.4-10.1-289.2,56.7L1199.4,2656.7z" class="color414143 svgShape"></path>
      <path fill="#434141" d="M2052,2657.3c0,0-82.7-16.6-260.7-105.8c-8.2-4.1-16.3-8.5-24.3-13.1c-64-36.2-406.1-221.3-664.2-187.3
			c-38.1,5-72.6,26.1-92.6,58.9c-27.8,45.4-31.8,117,108.5,199.9c7.3,4.3,15,7.9,23.1,10.7c61.8,21.7,357.1,121.4,588,130.7
			c0,0,59.4-10.1,289.2,56.7L2052,2657.3z" class="color414143 svgShape"></path>
      <path fill="#be1e2f" d="M1630.6,1737.7l19.8,21.2l-6.6,27l6.7,55c18.5,153.4,106.7,289.7,239,369.5l24.1,14.5
			c72.9,44,133,106.2,174.4,180.6l51.4,92.3l-38.2,70.1l-77.8-31.8l-62.2-112c-28-50.5-65.7-95-110.9-131.1l-47-37.5
			c-119.1-95-188.6-238.9-188.9-391.3l-0.2-76l-2.8-31.1L1630.6,1737.7z" class="colore25651 svgShape"></path>
    </g>
    <g fill="#000000" class="color000000 svgShape">
      <g fill="#000000" class="color000000 svgShape">
        <g fill="#000000" class="color000000 svgShape">
          <g fill="#000000" class="color000000 svgShape">
            <rect width="445.2" height="327.6" x="2324.8" y="1129.6" fill="#ededed" class="colorededed svgShape"></rect>
            <rect width="445.2" height="90.1" x="2324.8" y="1067" fill="#cccccc" class="colorcccccc svgShape"></rect>
            <rect width="445.2" height="147.3" x="2324.8" y="993.3" fill="#ededed" class="colorededed svgShape"></rect>
          </g>
          <g fill="#000000" class="color000000 svgShape">
            <rect width="199.4" height="327.6" x="2770" y="1129.6" fill="#e0e0e0" transform="rotate(-180 2869.677 1293.443)" class="colore0e0e0 svgShape"></rect>
            <rect width="199.4" height="90.1" x="2770" y="1067" fill="#b7b6b6" transform="rotate(-180 2869.677 1112.048)" class="colorb6b7b7 svgShape"></rect>
            <rect width="199.4" height="147.3" x="2770" y="993.3" fill="#e0e0e0" transform="rotate(-180 2869.677 1066.975)" class="colore0e0e0 svgShape"></rect>
          </g>
        </g>
        <rect width="131.9" height="463.9" x="2481.4" y="993.3" fill="#be1e2f" class="colore25651 svgShape"></rect>
        <rect width="74.8" height="463.9" x="2832.3" y="993.3" fill="#be1e2f" class="colore25651 svgShape"></rect>
      </g>
      <g fill="#000000" class="color000000 svgShape">
        <g fill="#000000" class="color000000 svgShape">
          <g fill="#000000" class="color000000 svgShape">
            <path fill="#be1e2f" d="M2552.3,991.9l4.1-26c2.2-13.9,22.9-136.4,84.9-171c20.4-11.4,43.4-12.2,66.5-2.5
						c21.8,9.2,39.9,25.3,51,45.4c12.7,23,14,46.2,3.8,67.1c-19.7,40.1-80,67.3-184.2,83.1L2552.3,991.9z M2676.3,824.3
						c-5.6,0-10.9,1.5-16.2,4.4c-30.7,17.1-50.7,76.4-60.2,116.6c94.9-17.8,121-43.1,128-57.4c1.7-3.4,6.8-13.9-2.9-31.3
						c-7-12.6-18.4-22.7-32.3-28.5C2686.9,825.5,2681.5,824.3,2676.3,824.3z" class="colore25651 svgShape"></path>
          </g>
          <g fill="#000000" class="color000000 svgShape">
            <path fill="#be1e2f" d="M2421.5,1019.9c-28.3,0-50.3-6-66.2-17.9c-18.7-13.9-28.1-35.2-27.2-61.5c0.8-23,9.6-45.6,24.8-63.6
						c16.1-19.2,37.2-29,60.3-28c71,2.6,145.2,102.3,153.4,113.6l15.4,21.3l-25,8.3C2501.7,1010.6,2456.7,1019.9,2421.5,1019.9z
						 M2410.4,887.4c-10.9,0-19.8,4.6-28,14.3c-9.7,11.5-15.3,25.7-15.8,40.1c-0.7,20,8.6,26.9,11.7,29.2
						c12.7,9.5,47.5,20.1,140.1-7.2c-26.8-31.4-71.6-75.1-106.7-76.4C2411.3,887.4,2410.8,887.4,2410.4,887.4z" class="colore25651 svgShape"></path>
          </g>
        </g>
        <g fill="#000000" class="color000000 svgShape">
          <circle cx="2560.9" cy="974.6" r="38.1" fill="#be1e2f" class="colore25651 svgShape"></circle>
        </g>
        <g fill="#000000" class="color000000 svgShape">
          <path fill="#be1e2f" d="M2584.4,968c0,0,262.4-5.8,321.7-163.1l10.3,58.3l58.6-17.6c-58.4,136.8-179.8,200.8-399.6,151L2584.4,968
					z" class="colore25651 svgShape"></path>
        </g>
        <g fill="#000000" class="color000000 svgShape">
          <path fill="#be1e2f" d="M2560.9,1004.4c0,0-238.2,110.2-229.8,278l-32.7-49.3l-46.7,39.5c-1.1-148.7,84.6-255.9,306-298
					L2560.9,1004.4z" class="colore25651 svgShape"></path>
        </g>
      </g>
    </g>
    <g fill="#000000" class="color000000 svgShape">
      <g fill="#000000" class="color000000 svgShape">
        <path fill="#b52a39" d="M887.9,1320l-731,188.1c-9,2.3-18.3-3.1-20.6-12.2L35,1071.4c-2.3-9,3.1-18.3,12.2-20.6L768.7,857
				c9-2.3,18.3,3.1,20.6,12.2l110.7,430.2C902.4,1308.5,896.9,1317.7,887.9,1320z" class="color2a84b5 svgShape"></path>
        <path fill="#d73f4f" d="M878.4,1314.4l-723.5,186.2c-9,2.3-18.3-3.1-20.6-12.2L25.5,1065.8c-2.3-9,3.1-18.3,12.2-20.6L761.2,859
				c9-2.3,18.3,3.1,20.6,12.2l108.8,422.7C892.9,1302.8,887.4,1312.1,878.4,1314.4z" class="color3f98d7 svgShape"></path>
      </g>
      <g fill="#000000" class="color000000 svgShape">
        <rect width="417.1" height="55.7" x="72.1" y="1023.3" fill="#ffffff" transform="rotate(-14.436 280.556 1051.027)" class="colorffffff svgShape"></rect>
        <g fill="#000000" class="color000000 svgShape">
          <rect width="150" height="41" x="142" y="1319.2" fill="#ffffff" transform="rotate(-14.436 216.92 1339.487)" class="colorffffff svgShape"></rect>
          <rect width="150" height="41" x="318.4" y="1273.8" fill="#ffffff" transform="rotate(-14.436 393.343 1294.085)" class="colorffffff svgShape"></rect>
          <rect width="150" height="41" x="494.9" y="1228.4" fill="#ffffff" transform="rotate(-14.436 569.766 1248.683)" class="colorffffff svgShape"></rect>
          <rect width="150" height="41" x="671.3" y="1183" fill="#ffffff" transform="rotate(-14.436 746.189 1203.28)" class="colorffffff svgShape"></rect>
        </g>
        <g fill="#000000" class="color000000 svgShape">
          <path fill="#fa3f53" d="M216.6,1153.4l18.1,70.3c1.4,5.6-1.9,11.2-7.5,12.7l-97.1,25c-5.5,1.4-11.2-1.9-12.7-7.5l-18.1-70.3
					c-1.4-5.6,1.9-11.2,7.5-12.7l97.1-25C209.4,1144.5,215.1,1147.8,216.6,1153.4z" class="colorfabc3f svgShape"></path>
          <g fill="#000000" class="color000000 svgShape">
            <g fill="#000000" class="color000000 svgShape">
              <rect width="121" height="5.7" x="99.5" y="1173.5" fill="#ffffff" transform="rotate(-14.436 159.908 1176.109)" class="colorffffff svgShape"></rect>
            </g>
            <g fill="#000000" class="color000000 svgShape">
              <path fill="#ffffff" d="M224.9,1185.7l1.4,5.5l-45.6,11.7c0.1-1,0-1.9-0.3-2.9c-0.2-0.9-0.6-1.9-1.2-2.7L224.9,1185.7z" class="colorffffff svgShape"></path>
            </g>
            <g fill="#000000" class="color000000 svgShape">
              <rect width="121" height="5.7" x="113.5" y="1228" fill="#ffffff" transform="rotate(-14.436 173.942 1230.64)" class="colorffffff svgShape"></rect>
            </g>
            <g fill="#000000" class="color000000 svgShape">
              <rect width="5.7" height="36.3" x="157.1" y="1157.8" fill="#ffffff" transform="rotate(-14.436 159.85 1175.768)" class="colorffffff svgShape"></rect>
              <rect width="5.7" height="36.3" x="171.3" y="1213" fill="#ffffff" transform="rotate(-14.436 174.055 1230.965)" class="colorffffff svgShape"></rect>
            </g>
            <g fill="#000000" class="color000000 svgShape">
              <path fill="#ffffff" d="M186,1198.7c0.2,0.9,0.4,1.9,0.4,2.8c0.6,7.6-4.3,14.7-12,16.7l-62.1,16l-1.4-5.5l62.1-16
							c4.6-1.2,7.6-5.2,7.7-9.7c0.1-1,0-1.9-0.3-2.9c-0.2-0.9-0.6-1.9-1.2-2.7c-2.2-3.9-6.8-6-11.4-4.8l-62.1,16l-1.4-5.5l62.1-16
							c7.6-2,15.4,1.9,18.6,8.8C185.4,1196.9,185.7,1197.8,186,1198.7z" class="colorffffff svgShape"></path>
            </g>
          </g>
        </g>
      </g>
      <rect width="257.2" height="13.7" x="157" y="1384.3" fill="#ffffff" transform="rotate(-14.436 285.482 1390.902)" class="colorffffff svgShape"></rect>
      <rect width="128.6" height="13.7" x="168.2" y="1436.3" fill="#ffffff" transform="rotate(-14.436 232.46 1442.84)" class="colorffffff svgShape"></rect>
    </g>
    <g fill="#000000" class="color000000 svgShape">
      <g fill="#000000" class="color000000 svgShape">
        <path fill="#5e5859" d="M1306,518.2c-8-9.3-194-228.5-93.9-333.3c1.8-1.8,43.1-43.2,108.4-33.4c75.8,11.4,149.3,85.6,218.6,220.5
				l-12.9,6.6c-66-128.5-137.7-202-207.6-212.7c-57.9-8.9-95.7,28.7-96.1,29.1c-91.1,95.3,92.6,311.6,94.5,313.8L1306,518.2z" class="color585a5e svgShape"></path>
      </g>
      <g fill="#000000" class="color000000 svgShape">
        <g fill="#000000" class="color000000 svgShape">
          <polygon fill="#ea2f43" points="1733.8 637.6 1887.2 624.8 1868.2 677 1418.8 945.3 1202.6 533.6 1238.4 529.4 1243.8 474.8 1640.1 538.5" class="coloreaa22f svgShape"></polygon>
          <polygon fill="#fa3f53" points="1243.8 474.8 1463.8 885.8 1887.2 624.8 1610.8 250" class="colorfabc3f svgShape"></polygon>
        </g>
        <path fill="#5e5859" d="M1580.1 324.9c5.1 11.6-.2 25.1-11.8 30.2-11.6 5.1-25.1-.2-30.2-11.8-5.1-11.6.2-25.1 11.8-30.2C1561.5 308 1575 313.3 1580.1 324.9zM1358.9 463.1c5.1 11.6-.2 25.1-11.8 30.2-11.6 5.1-25.1-.2-30.2-11.8-5.1-11.6.2-25.1 11.8-30.2C1340.3 446.2 1353.8 451.5 1358.9 463.1z" class="color585a5e svgShape"></path>
      </g>
      <g fill="#000000" class="color000000 svgShape">
        <path fill="#5e5859" d="M1332.4,477c-8-9.3-194-228.5-93.9-333.3c1.8-1.8,43.1-43.2,108.4-33.4c75.8,11.4,149.3,85.6,218.6,220.5
				l-12.9,6.6c-66-128.5-137.7-202-207.6-212.7c-57.9-8.9-95.7,28.7-96.1,29.1c-91.1,95.3,92.6,311.6,94.5,313.8L1332.4,477z" class="color585a5e svgShape"></path>
      </g>
    </g>
  </g>
</svg>
