<svg xmlns="http://www.w3.org/2000/svg" xml:space="preserve" id="PhotographyEnthusiasts" x="0" y="0" enable-background="new 0 0 1364 960" version="1.1" viewBox="0 0 1364 960">
  <g fill="#000000" class="color000000 svgShape">
    <g fill="#000000" class="color000000 svgShape">
      <g fill="#000000" class="color000000 svgShape">
        <path fill="#ed9da5" d="M1138.3,252.37c-0.67,0-1.29-0.42-1.5-1.09c-1.24-3.83-1.99-5.95-1.99-5.96c-0.29-0.82,0.15-1.73,0.97-2.02
				c0.83-0.29,1.73,0.15,2.02,0.97c0.01,0.02,0.77,2.2,2.02,6.03c0.27,0.83-0.18,1.72-1.02,1.99
				C1138.62,252.35,1138.46,252.37,1138.3,252.37z" class="color9dc9ed svgShape"></path>
      </g>
      <g fill="#000000" class="color000000 svgShape">
        <path fill="#ed9da5" d="M1130.58,609.21c-0.24,0-0.47-0.05-0.7-0.16c-0.78-0.39-1.1-1.34-0.72-2.12c1.7-3.45,3.6-7.34,5.66-11.6
				c0.38-0.79,1.33-1.12,2.11-0.74c0.79,0.38,1.12,1.32,0.74,2.11c-2.06,4.27-3.96,8.17-5.67,11.63
				C1131.73,608.88,1131.17,609.21,1130.58,609.21z M1141.79,585.93c-0.23,0-0.45-0.05-0.67-0.15c-0.79-0.37-1.13-1.31-0.76-2.1
				c1.75-3.73,3.57-7.64,5.42-11.7c0.36-0.79,1.3-1.14,2.1-0.78c0.79,0.36,1.14,1.3,0.78,2.1c-1.86,4.07-3.68,7.99-5.44,11.73
				C1142.96,585.59,1142.39,585.93,1141.79,585.93z M1152.53,562.44c-0.21,0-0.43-0.04-0.64-0.14c-0.8-0.35-1.16-1.29-0.8-2.09
				c1.76-3.95,3.49-7.92,5.17-11.81c0.34-0.8,1.27-1.17,2.08-0.83c0.8,0.35,1.17,1.28,0.83,2.08c-1.68,3.9-3.42,7.89-5.19,11.85
				C1153.72,562.09,1153.14,562.44,1152.53,562.44z M1162.74,538.72c-0.2,0-0.41-0.04-0.61-0.12c-0.81-0.34-1.19-1.26-0.85-2.07
				c1.68-4.04,3.31-8.06,4.86-11.94c0.32-0.81,1.25-1.21,2.05-0.88c0.81,0.32,1.21,1.24,0.88,2.05c-1.55,3.89-3.19,7.93-4.87,11.98
				C1163.95,538.36,1163.36,538.72,1162.74,538.72z M1172.29,514.73c-0.19,0-0.38-0.03-0.56-0.1c-0.82-0.31-1.23-1.22-0.92-2.04
				c1.57-4.13,3.06-8.2,4.44-12.09c0.29-0.82,1.2-1.25,2.02-0.96c0.82,0.29,1.25,1.2,0.96,2.02c-1.39,3.91-2.89,8-4.47,12.15
				C1173.53,514.34,1172.92,514.73,1172.29,514.73z M1180.93,490.4c-0.16,0-0.33-0.03-0.49-0.08c-0.83-0.27-1.28-1.17-1.01-2
				c1.39-4.22,2.68-8.35,3.84-12.28c0.25-0.84,1.13-1.32,1.96-1.07c0.84,0.25,1.32,1.13,1.07,1.96c-1.17,3.96-2.47,8.12-3.87,12.37
				C1182.21,489.97,1181.59,490.4,1180.93,490.4z M1130.72,469.4c-0.64,0-1.24-0.39-1.48-1.02c-0.31-0.82,0.1-1.73,0.91-2.04
				c3.02-1.15,6.46-3.43,10.21-6.78c0.65-0.58,1.65-0.52,2.23,0.13c0.58,0.65,0.52,1.65-0.13,2.23c-4.04,3.6-7.81,6.08-11.19,7.37
				C1131.1,469.37,1130.91,469.4,1130.72,469.4z M1119.42,466.44c-0.54,0-1.07-0.28-1.37-0.78c-1.44-2.46-2.2-5.83-2.2-9.77
				c0-1.21,0.07-2.48,0.21-3.77c0.09-0.87,0.87-1.5,1.74-1.4c0.87,0.09,1.5,0.87,1.4,1.74c-0.13,1.18-0.19,2.34-0.19,3.43
				c0,3.37,0.61,6.19,1.77,8.17c0.44,0.75,0.19,1.72-0.56,2.16C1119.96,466.37,1119.69,466.44,1119.42,466.44z M1188.19,465.62
				c-0.13,0-0.26-0.02-0.39-0.05c-0.85-0.21-1.36-1.07-1.15-1.92c1.1-4.38,2.05-8.59,2.8-12.51c0.16-0.86,1-1.42,1.85-1.25
				c0.86,0.17,1.42,0.99,1.25,1.85c-0.77,3.97-1.72,8.24-2.84,12.68C1189.55,465.14,1188.9,465.62,1188.19,465.62z M1150.25,452.96
				c-0.33,0-0.66-0.1-0.95-0.32c-0.7-0.52-0.84-1.52-0.32-2.21c2.37-3.15,4.47-6.8,6.26-10.83c0.35-0.8,1.29-1.16,2.09-0.81
				c0.8,0.35,1.16,1.29,0.81,2.09c-1.88,4.25-4.11,8.1-6.62,11.45C1151.2,452.74,1150.73,452.96,1150.25,452.96z M1120.83,441.41
				c-0.19,0-0.39-0.04-0.58-0.11c-0.81-0.32-1.21-1.24-0.89-2.05c1.6-4.05,3.67-7.99,6.16-11.69c0.49-0.73,1.47-0.92,2.19-0.43
				c0.73,0.49,0.92,1.47,0.43,2.19c-2.36,3.52-4.32,7.25-5.84,11.1C1122.06,441.03,1121.46,441.41,1120.83,441.41z M1192.95,440.27
				c-0.06,0-0.11,0-0.17-0.01c-0.87-0.09-1.5-0.87-1.41-1.74c0.35-3.36,0.53-6.53,0.53-9.41c0-1.1-0.03-2.18-0.08-3.22
				c-0.04-0.87,0.63-1.61,1.5-1.66c0.88-0.05,1.61,0.63,1.66,1.5c0.05,1.09,0.08,2.23,0.08,3.38c0,2.99-0.18,6.27-0.55,9.74
				C1194.44,439.66,1193.75,440.27,1192.95,440.27z M1160.88,429.64c-0.13,0-0.27-0.02-0.4-0.05c-0.85-0.22-1.35-1.09-1.13-1.93
				c1.01-3.86,1.84-8.06,2.47-12.47c0.12-0.86,0.93-1.47,1.79-1.34c0.86,0.12,1.47,0.92,1.34,1.79c-0.64,4.53-1.5,8.84-2.54,12.82
				C1162.23,429.17,1161.58,429.64,1160.88,429.64z M1135.09,420.14c-0.41,0-0.83-0.16-1.14-0.48c-0.61-0.63-0.59-1.63,0.04-2.24
				c3.21-3.09,6.73-5.8,10.48-8.06c0.74-0.45,1.72-0.21,2.17,0.54c0.45,0.75,0.21,1.72-0.54,2.17c-3.55,2.13-6.88,4.7-9.92,7.62
				C1135.88,419.99,1135.49,420.14,1135.09,420.14z M1190.9,414.8c-0.62,0-1.2-0.36-1.46-0.97c-1.72-4.08-4.25-6.79-7.76-8.3
				c-0.8-0.34-1.18-1.27-0.83-2.08c0.34-0.8,1.27-1.18,2.08-0.83c4.24,1.82,7.42,5.17,9.44,9.98c0.34,0.81-0.04,1.73-0.85,2.07
				C1191.31,414.76,1191.1,414.8,1190.9,414.8z M1157.01,406.99c-0.67,0-1.29-0.43-1.51-1.1c-0.27-0.83,0.19-1.72,1.02-1.99
				c2.13-0.68,4.31-1.24,6.54-1.69c0.19-3.47,0.29-7.12,0.29-10.85c0-0.55,0-1.11-0.01-1.66c-0.01-0.87,0.7-1.59,1.57-1.59
				c0,0,0.01,0,0.01,0c0.87,0,1.58,0.7,1.58,1.57c0,0.56,0.01,1.12,0.01,1.69c0,3.53-0.09,6.99-0.26,10.3
				c1.06-0.15,2.13-0.28,3.2-0.38c0.87-0.08,1.64,0.56,1.72,1.43c0.08,0.87-0.56,1.64-1.43,1.72c-4.24,0.39-8.36,1.23-12.27,2.48
				C1157.33,406.97,1157.17,406.99,1157.01,406.99z M1164.49,378.38c-0.83,0-1.53-0.65-1.58-1.49c-0.24-4.13-0.59-8.43-1.03-12.79
				c-0.09-0.87,0.55-1.64,1.42-1.73c0.87-0.09,1.64,0.55,1.73,1.42c0.44,4.41,0.79,8.75,1.04,12.92c0.05,0.87-0.61,1.62-1.49,1.67
				C1164.56,378.38,1164.53,378.38,1164.49,378.38z M1161.94,352.7c-0.78,0-1.46-0.58-1.57-1.37c-0.56-4.12-1.21-8.4-1.92-12.71
				c-0.14-0.86,0.44-1.68,1.3-1.82c0.86-0.15,1.68,0.44,1.82,1.3c0.72,4.34,1.37,8.65,1.94,12.8c0.12,0.87-0.49,1.66-1.35,1.78
				C1162.09,352.7,1162.01,352.7,1161.94,352.7z M1157.73,327.26c-0.74,0-1.4-0.53-1.55-1.28c-0.79-4.12-1.67-8.36-2.59-12.6
				c-0.19-0.85,0.36-1.7,1.21-1.88c0.85-0.19,1.7,0.35,1.88,1.21c0.93,4.27,1.81,8.53,2.6,12.67c0.17,0.86-0.4,1.69-1.25,1.85
				C1157.93,327.25,1157.83,327.26,1157.73,327.26z M1152.25,302.04c-0.71,0-1.36-0.49-1.54-1.21c-0.98-4.11-2.03-8.31-3.12-12.49
				c-0.22-0.85,0.29-1.71,1.13-1.93c0.84-0.22,1.71,0.29,1.93,1.13c1.09,4.2,2.15,8.42,3.14,12.55c0.2,0.85-0.32,1.7-1.17,1.91
				C1152.5,302.03,1152.38,302.04,1152.25,302.04z M1145.75,277.07c-0.69,0-1.33-0.46-1.52-1.15c-1.16-4.14-2.37-8.3-3.6-12.36
				c-0.25-0.84,0.22-1.72,1.06-1.97c0.83-0.25,1.72,0.22,1.97,1.06c1.23,4.08,2.45,8.26,3.61,12.42c0.24,0.84-0.25,1.71-1.1,1.95
				C1146.04,277.05,1145.9,277.07,1145.75,277.07z" class="color9dc9ed svgShape"></path>
      </g>
      <g fill="#000000" class="color000000 svgShape">
        <path fill="#ed9da5" d="M1121.99,626.24c-0.25,0-0.5-0.06-0.73-0.18c-0.77-0.41-1.07-1.36-0.67-2.13c0-0.01,1.05-2,2.88-5.61
				c0.4-0.78,1.35-1.09,2.13-0.69c0.78,0.4,1.09,1.35,0.69,2.13c-1.85,3.63-2.9,5.64-2.9,5.64
				C1123.1,625.93,1122.56,626.24,1121.99,626.24z" class="color9dc9ed svgShape"></path>
      </g>
    </g>
    <g fill="#000000" class="color000000 svgShape">
      <path fill="#ed9da5" d="M230.76,767.28c-0.55,0-1.04-0.28-1.32-0.72c-0.29-0.43-1.66-2.47-3.81-5.82c-0.47-0.74-0.26-1.71,0.48-2.18
			c0.73-0.47,1.71-0.26,2.19,0.48c2.15,3.37,3.52,5.39,3.77,5.76c0.18,0.26,0.28,0.58,0.28,0.9
			C232.34,766.57,231.63,767.28,230.76,767.28z M220.26,750.7c-0.53,0-1.06-0.27-1.35-0.76c-2.18-3.6-4.36-7.29-6.46-10.95
			c-0.44-0.76-0.18-1.72,0.58-2.16c0.75-0.44,1.72-0.18,2.16,0.58c2.1,3.64,4.26,7.3,6.43,10.89c0.45,0.75,0.21,1.72-0.53,2.17
			C220.82,750.62,220.53,750.7,220.26,750.7z M207.61,728.73c-0.56,0-1.1-0.3-1.39-0.82c-2.05-3.76-4.06-7.53-5.96-11.22
			c-0.4-0.78-0.1-1.73,0.68-2.13c0.78-0.4,1.73-0.1,2.13,0.68c1.89,3.67,3.89,7.43,5.92,11.16c0.42,0.77,0.14,1.73-0.63,2.15
			C208.12,728.66,207.86,728.73,207.61,728.73z M196,706.2c-0.59,0-1.15-0.33-1.43-0.89c-1.87-3.87-3.67-7.75-5.36-11.53
			c-0.36-0.8,0-1.73,0.8-2.09c0.8-0.36,1.73,0,2.09,0.8c1.68,3.76,3.47,7.61,5.32,11.45c0.38,0.79,0.05,1.73-0.74,2.11
			C196.47,706.15,196.23,706.2,196,706.2z M185.68,683.06c-0.63,0-1.22-0.37-1.47-0.99c-1.64-4.03-3.17-8.03-4.56-11.88
			c-0.3-0.82,0.13-1.73,0.95-2.02c0.82-0.3,1.73,0.13,2.02,0.95c1.38,3.82,2.9,7.77,4.52,11.77c0.33,0.81-0.06,1.73-0.87,2.06
			C186.08,683.02,185.88,683.06,185.68,683.06z M177.13,659.22c-0.68,0-1.3-0.44-1.51-1.12c-1.29-4.21-2.43-8.35-3.38-12.31
			c-0.2-0.85,0.32-1.7,1.17-1.91c0.85-0.2,1.7,0.32,1.91,1.17c0.94,3.89,2.06,7.97,3.33,12.12c0.26,0.84-0.21,1.72-1.05,1.98
			C177.44,659.19,177.28,659.22,177.13,659.22z M171.28,634.59c-0.76,0-1.44-0.55-1.56-1.33c-0.7-4.42-1.16-8.71-1.37-12.75
			c-0.05-0.87,0.63-1.62,1.5-1.66c0.03,0,0.06,0,0.08,0c0.84,0,1.53,0.66,1.58,1.5c0.2,3.92,0.65,8.1,1.34,12.41
			c0.14,0.86-0.45,1.67-1.31,1.81C171.44,634.59,171.36,634.59,171.28,634.59z M209.88,621.65c-2.89,0-5.84-0.55-8.79-1.63
			c-0.82-0.3-1.24-1.21-0.94-2.03c0.3-0.82,1.21-1.24,2.03-0.94c3.94,1.44,7.85,1.8,11.57,1.05c0.86-0.18,1.69,0.38,1.86,1.24
			c0.17,0.86-0.38,1.69-1.24,1.86C212.91,621.5,211.39,621.65,209.88,621.65z M225.18,615.5c-0.44,0-0.87-0.18-1.19-0.53
			c-0.58-0.65-0.52-1.65,0.14-2.23c2.85-2.52,5.33-5.72,7.37-9.51c0.41-0.77,1.38-1.06,2.14-0.64c0.77,0.41,1.06,1.37,0.64,2.14
			c-2.21,4.12-4.93,7.62-8.06,10.38C225.92,615.36,225.55,615.5,225.18,615.5z M190.82,613.67c-0.35,0-0.71-0.12-1.01-0.36
			c-3.04-2.51-6.09-5.61-9.07-9.21c-0.56-0.67-0.46-1.67,0.21-2.23c0.67-0.56,1.67-0.46,2.23,0.21c2.86,3.45,5.77,6.41,8.65,8.79
			c0.67,0.56,0.77,1.55,0.21,2.23C191.73,613.48,191.28,613.67,190.82,613.67z M170.15,609.37c-0.05,0-0.1,0-0.15-0.01
			c-0.87-0.08-1.51-0.86-1.42-1.73c0.43-4.54,1.27-8.81,2.49-12.71c0.26-0.83,1.14-1.3,1.98-1.04c0.83,0.26,1.3,1.15,1.04,1.98
			c-1.15,3.69-1.95,7.75-2.36,12.07C171.64,608.76,170.95,609.37,170.15,609.37z M175.11,594.08c-0.59,0-1.15-0.33-1.42-0.89
			c-1.86-3.83-3.28-7.97-4.23-12.28c-0.19-0.85,0.35-1.7,1.2-1.88c0.85-0.19,1.7,0.35,1.88,1.21c0.9,4.07,2.24,7.97,3.99,11.58
			c0.38,0.79,0.05,1.73-0.73,2.11C175.57,594.02,175.34,594.08,175.11,594.08z M237.2,593.69c-0.11,0-0.21-0.01-0.32-0.03
			c-0.86-0.18-1.41-1.01-1.23-1.87c0.53-2.58,0.8-5.14,0.8-7.6c0-1.53-0.11-3.02-0.32-4.43c-0.13-0.86,0.47-1.67,1.33-1.8
			c0.86-0.13,1.67,0.47,1.8,1.33c0.23,1.57,0.35,3.22,0.35,4.9c0,2.67-0.29,5.44-0.87,8.24
			C238.59,593.18,237.93,593.69,237.2,593.69z M177.9,585.55c-0.3,0-0.6-0.08-0.87-0.26c-0.73-0.48-0.93-1.46-0.46-2.19
			c2.4-3.66,5.35-6.92,8.77-9.71c0.68-0.55,1.67-0.45,2.23,0.23c0.55,0.68,0.45,1.67-0.23,2.23c-3.17,2.58-5.9,5.61-8.12,8.99
			C178.92,585.3,178.42,585.55,177.9,585.55z M232.65,569.72c-0.43,0-0.85-0.17-1.16-0.51c-2.53-2.75-5.95-4.41-10.15-4.93
			c-0.87-0.11-1.48-0.9-1.37-1.77c0.11-0.87,0.9-1.48,1.77-1.37c4.97,0.62,9.03,2.62,12.08,5.93c0.59,0.64,0.55,1.64-0.09,2.23
			C233.42,569.58,233.04,569.72,232.65,569.72z M197.12,569.66c-0.6,0-1.17-0.34-1.44-0.92c-0.36-0.79-0.02-1.73,0.78-2.1
			c4.3-1.97,8.39-3.45,12.15-4.4c0.85-0.22,1.71,0.3,1.92,1.15c0.21,0.85-0.3,1.71-1.15,1.92c-3.58,0.9-7.48,2.31-11.61,4.21
			C197.57,569.61,197.34,569.66,197.12,569.66z M169.56,569.59c-0.86,0-1.56-0.69-1.58-1.55c-0.01-0.47-0.01-0.95-0.01-1.42
			c0-3.66,0.27-7.51,0.8-11.43c0.12-0.87,0.9-1.47,1.78-1.36c0.87,0.12,1.47,0.91,1.36,1.78c-0.51,3.79-0.77,7.49-0.77,11.01
			c0,0.45,0,0.91,0.01,1.36c0.02,0.87-0.68,1.6-1.55,1.61C169.58,569.59,169.57,569.59,169.56,569.59z M172.78,544.57
			c-0.13,0-0.26-0.02-0.39-0.05c-0.85-0.22-1.36-1.08-1.14-1.92c1.01-3.95,2.27-8.07,3.74-12.24c0.29-0.82,1.2-1.26,2.02-0.97
			c0.82,0.29,1.26,1.19,0.96,2.02c-1.44,4.08-2.67,8.11-3.66,11.97C174.12,544.1,173.48,544.57,172.78,544.57z M181.12,520.69
			c-0.21,0-0.42-0.04-0.63-0.13c-0.8-0.35-1.17-1.28-0.82-2.08c1.63-3.75,3.45-7.63,5.42-11.55c0.39-0.78,1.34-1.1,2.12-0.7
			c0.78,0.39,1.09,1.34,0.7,2.12c-1.94,3.86-3.74,7.69-5.34,11.39C182.31,520.33,181.73,520.69,181.12,520.69z M192.47,498.05
			c-0.26,0-0.53-0.07-0.78-0.2c-0.76-0.43-1.03-1.39-0.6-2.15c2.02-3.58,4.2-7.27,6.47-10.97c0.46-0.74,1.43-0.97,2.18-0.52
			c0.74,0.46,0.98,1.43,0.52,2.18c-2.26,3.66-4.41,7.31-6.41,10.86C193.55,497.75,193.02,498.05,192.47,498.05z M205.75,476.46
			c-0.3,0-0.61-0.09-0.88-0.26c-0.73-0.48-0.92-1.47-0.44-2.19c2.29-3.45,4.72-6.98,7.2-10.49c0.5-0.71,1.49-0.88,2.2-0.38
			c0.71,0.51,0.88,1.49,0.38,2.21c-2.47,3.48-4.88,6.99-7.15,10.41C206.76,476.22,206.26,476.46,205.75,476.46z M220.4,455.78
			c-0.33,0-0.66-0.1-0.95-0.32c-0.7-0.52-0.84-1.52-0.32-2.21c2.51-3.34,5.12-6.73,7.76-10.08c0.54-0.69,1.54-0.8,2.22-0.26
			c0.68,0.54,0.8,1.54,0.26,2.22c-2.62,3.32-5.22,6.69-7.71,10.01C221.35,455.56,220.88,455.78,220.4,455.78z M236.1,435.87
			c-0.36,0-0.71-0.12-1.01-0.36c-0.67-0.56-0.77-1.55-0.21-2.23c2.7-3.26,5.46-6.52,8.22-9.7c0.57-0.66,1.57-0.73,2.23-0.16
			c0.66,0.57,0.73,1.57,0.16,2.23c-2.74,3.16-5.49,6.41-8.17,9.65C237.01,435.68,236.55,435.87,236.1,435.87z M252.71,416.71
			c-0.38,0-0.76-0.14-1.06-0.41c-0.65-0.59-0.69-1.59-0.11-2.23c5.34-5.88,8.71-9.3,8.75-9.34c0.61-0.62,1.61-0.63,2.24-0.02
			c0.62,0.61,0.63,1.62,0.02,2.24c-0.03,0.03-3.37,3.42-8.66,9.24C253.57,416.53,253.14,416.71,252.71,416.71z" class="color9dc9ed svgShape"></path>
    </g>
    <path fill="#ffd9dd" d="M1089.65,591.64c-125.43-103.94,398.7-535.6-406.2-535.12c-804.89-0.48-280.77,431.18-406.2,535.12
		c-125.43,103.94-21.04,261.33-21.04,261.33h854.48C1110.69,852.97,1215.08,695.57,1089.65,591.64z" class="colord9e8ff svgShape"></path>
    <g fill="#000000" class="color000000 svgShape">
      <path fill="#ed9da5" d="M396.06,135.91c-0.37,0-0.75-0.13-1.05-0.4c-0.65-0.58-0.71-1.58-0.13-2.23c0.13-0.14,3.16-3.53,9.02-9.14
			c0.63-0.6,1.63-0.58,2.24,0.05c0.6,0.63,0.58,1.63-0.05,2.24c-5.77,5.51-8.82,8.92-8.85,8.95
			C396.93,135.74,396.5,135.91,396.06,135.91z M872.55,130.66c-0.65,0-1.26-0.41-1.49-1.06c-1.29-3.66-2.97-7.49-5.01-11.38
			c-0.4-0.77-0.11-1.73,0.67-2.13c0.77-0.4,1.73-0.11,2.13,0.67c2.11,4.03,3.85,8,5.19,11.8c0.29,0.82-0.14,1.73-0.97,2.02
			C872.9,130.63,872.72,130.66,872.55,130.66z M414.35,118.31c-0.44,0-0.88-0.18-1.19-0.54c-0.58-0.66-0.51-1.66,0.14-2.23
			c3.13-2.76,6.4-5.52,9.71-8.23c0.68-0.55,1.67-0.45,2.23,0.22c0.55,0.68,0.45,1.67-0.22,2.23c-3.28,2.68-6.52,5.42-9.62,8.16
			C415.09,118.18,414.72,118.31,414.35,118.31z M860.95,108.21c-0.51,0-1.01-0.24-1.31-0.7c-2.29-3.38-4.81-6.74-7.51-9.98
			c-0.56-0.67-0.47-1.67,0.2-2.23c0.67-0.56,1.67-0.47,2.23,0.2c2.77,3.32,5.36,6.76,7.7,10.23c0.49,0.72,0.3,1.71-0.42,2.2
			C861.57,108.12,861.26,108.21,860.95,108.21z M433.96,102.27c-0.48,0-0.95-0.21-1.26-0.62c-0.53-0.7-0.4-1.69,0.3-2.22
			c3.34-2.55,6.79-5.09,10.24-7.54c0.71-0.51,1.7-0.34,2.21,0.37c0.51,0.71,0.34,1.7-0.37,2.21c-3.42,2.44-6.84,4.95-10.16,7.48
			C434.63,102.16,434.29,102.27,433.96,102.27z M844.81,88.78c-0.4,0-0.81-0.15-1.12-0.46c-2.9-2.9-6.01-5.74-9.22-8.46
			c-0.67-0.56-0.75-1.56-0.19-2.23c0.56-0.67,1.56-0.75,2.23-0.19c3.28,2.77,6.45,5.68,9.41,8.63c0.62,0.62,0.62,1.62,0,2.24
			C845.62,88.62,845.21,88.78,844.81,88.78z M454.6,87.58c-0.51,0-1.01-0.25-1.32-0.71c-0.48-0.73-0.28-1.71,0.44-2.19
			c3.52-2.34,7.12-4.64,10.7-6.86c0.74-0.46,1.72-0.23,2.18,0.51c0.46,0.74,0.23,1.72-0.51,2.18c-3.55,2.2-7.13,4.49-10.62,6.8
			C455.2,87.5,454.9,87.58,454.6,87.58z M476.13,74.27c-0.55,0-1.08-0.29-1.37-0.79c-0.43-0.76-0.17-1.72,0.58-2.16
			c3.66-2.1,7.4-4.17,11.13-6.15c0.77-0.41,1.73-0.12,2.14,0.65c0.41,0.77,0.12,1.73-0.65,2.14c-3.7,1.96-7.41,4.01-11.04,6.1
			C476.67,74.2,476.4,74.27,476.13,74.27z M825.52,72.46c-0.32,0-0.64-0.1-0.92-0.3c-3.32-2.39-6.83-4.73-10.42-6.95
			c-0.74-0.46-0.97-1.43-0.51-2.18c0.46-0.74,1.43-0.97,2.18-0.51c3.65,2.26,7.22,4.64,10.61,7.08c0.71,0.51,0.87,1.5,0.36,2.21
			C826.49,72.24,826.01,72.46,825.52,72.46z M498.49,62.4c-0.58,0-1.15-0.33-1.42-0.89c-0.38-0.78-0.06-1.73,0.73-2.12
			c3.79-1.86,7.66-3.67,11.51-5.39c0.8-0.36,1.73,0,2.09,0.8c0.36,0.8,0,1.73-0.8,2.09c-3.81,1.71-7.65,3.51-11.41,5.35
			C498.96,62.34,498.72,62.4,498.49,62.4z M804.05,59.16c-0.25,0-0.51-0.06-0.74-0.19c-3.62-1.93-7.4-3.8-11.24-5.57
			c-0.79-0.36-1.14-1.3-0.78-2.1c0.37-0.79,1.31-1.14,2.1-0.78c3.9,1.79,7.73,3.69,11.41,5.65c0.77,0.41,1.06,1.37,0.65,2.14
			C805.16,58.85,804.61,59.16,804.05,59.16z M521.59,52.04c-0.62,0-1.22-0.37-1.47-0.98c-0.33-0.81,0.06-1.73,0.87-2.06
			c3.91-1.59,7.9-3.14,11.85-4.6c0.82-0.3,1.73,0.12,2.03,0.94c0.3,0.82-0.12,1.73-0.94,2.03c-3.92,1.44-7.87,2.97-11.75,4.56
			C521.99,52.01,521.79,52.04,521.59,52.04z M781.1,48.59c-0.19,0-0.39-0.04-0.58-0.11c-3.82-1.51-7.78-2.97-11.79-4.34
			c-0.83-0.28-1.27-1.18-0.99-2.01c0.28-0.83,1.18-1.27,2.01-0.99c4.05,1.38,8.07,2.86,11.94,4.39c0.81,0.32,1.21,1.24,0.89,2.05
			C782.32,48.21,781.73,48.59,781.1,48.59z M545.34,43.31c-0.67,0-1.28-0.42-1.5-1.09c-0.27-0.83,0.18-1.72,1.01-2
			c4.02-1.32,8.1-2.58,12.14-3.75c0.84-0.24,1.72,0.24,1.96,1.08c0.24,0.84-0.24,1.72-1.08,1.96c-4,1.16-8.05,2.41-12.04,3.72
			C545.67,43.28,545.5,43.31,545.34,43.31z M757.18,40.42c-0.15,0-0.3-0.02-0.44-0.06c-3.95-1.15-8.04-2.25-12.14-3.27
			c-0.85-0.21-1.37-1.07-1.16-1.92c0.21-0.85,1.07-1.36,1.92-1.15c4.15,1.03,8.28,2.14,12.27,3.3c0.84,0.24,1.32,1.12,1.08,1.96
			C758.5,39.97,757.87,40.42,757.18,40.42z M569.64,36.28c-0.71,0-1.35-0.48-1.53-1.2c-0.21-0.85,0.3-1.71,1.15-1.92
			c4.1-1.03,8.26-1.99,12.38-2.86c0.85-0.18,1.69,0.36,1.88,1.22c0.18,0.85-0.36,1.69-1.22,1.88c-4.08,0.87-8.21,1.82-12.27,2.84
			C569.9,36.26,569.77,36.28,569.64,36.28z M732.65,34.32c-0.11,0-0.22-0.01-0.32-0.03c-4.03-0.84-8.19-1.63-12.36-2.35
			c-0.86-0.15-1.44-0.97-1.29-1.83c0.15-0.86,0.97-1.44,1.83-1.29c4.21,0.73,8.4,1.52,12.47,2.37c0.86,0.18,1.4,1.02,1.23,1.87
			C734.05,33.81,733.39,34.32,732.65,34.32z M594.38,31.03c-0.75,0-1.42-0.54-1.56-1.31c-0.15-0.86,0.43-1.68,1.29-1.83
			c4.16-0.72,8.38-1.38,12.56-1.95c0.86-0.12,1.66,0.49,1.78,1.35c0.12,0.87-0.49,1.66-1.35,1.78c-4.13,0.56-8.32,1.21-12.44,1.93
			C594.56,31.02,594.47,31.03,594.38,31.03z M707.74,30.01c-0.07,0-0.15,0-0.22-0.02c-4.08-0.57-8.29-1.1-12.5-1.56
			c-0.87-0.1-1.49-0.88-1.4-1.75c0.1-0.87,0.86-1.5,1.75-1.4c4.24,0.47,8.47,1,12.59,1.57c0.86,0.12,1.47,0.92,1.35,1.79
			C709.2,29.44,708.52,30.01,707.74,30.01z M619.45,27.61c-0.8,0-1.49-0.61-1.57-1.43c-0.09-0.87,0.55-1.64,1.42-1.73
			c4.19-0.41,8.45-0.75,12.67-1.01c0.89-0.07,1.62,0.61,1.68,1.48c0.05,0.87-0.61,1.62-1.48,1.68c-4.18,0.26-8.4,0.59-12.55,1
			C619.55,27.61,619.5,27.61,619.45,27.61z M682.62,27.23c-0.04,0-0.09,0-0.13-0.01c-0.89-0.07-1.79-0.15-2.69-0.22
			c-3.28-0.25-6.6-0.46-9.88-0.63c-0.87-0.04-1.55-0.78-1.5-1.66c0.04-0.87,0.79-1.56,1.66-1.5c3.31,0.16,6.66,0.37,9.97,0.63
			c0.91,0.07,1.81,0.14,2.71,0.22c0.87,0.07,1.52,0.84,1.45,1.71C684.12,26.6,683.43,27.23,682.62,27.23z M644.69,26.07
			c-0.86,0-1.56-0.68-1.58-1.54c-0.02-0.87,0.67-1.6,1.54-1.62c4.21-0.1,8.46-0.13,12.71-0.07c0.87,0.01,1.57,0.73,1.56,1.6
			c-0.01,0.87-0.72,1.56-1.58,1.56c-0.01,0-0.01,0-0.02,0c-4.21-0.05-8.42-0.03-12.59,0.07C644.72,26.07,644.71,26.07,644.69,26.07z
			" class="color9dc9ed svgShape"></path>
    </g>
    <path fill="#bc3e4b" d="M1041.87,452.55c2.36-3.06,2.41-7.51,0.67-10.95c-1.74-3.44-5.03-5.92-8.63-7.31c-3.6-1.39-7.5-1.8-11.35-1.93
		c-6.38-0.2-12.99,0.42-18.78,2.97c3.56-8.67,7.79-17.06,12.65-25.09c0.44-0.73,0.9-1.45,1.35-2.18
		c5.46,3.85,10.93,7.71,16.39,11.56c3.64,2.57,7.41,5.2,11.75,6.22c4.34,1.02,9.46,0.08,12.19-3.46c2.36-3.06,2.41-7.51,0.67-10.95
		c-1.74-3.44-5.03-5.92-8.63-7.31c-3.6-1.39-7.5-1.8-11.35-1.93c-6.58-0.21-13.41,0.46-19.33,3.22
		c5.66-8.74,12.05-17.01,19.08-24.69c5.68,3.69,11.37,7.38,17.05,11.07c3.74,2.43,7.6,4.91,11.98,5.76
		c4.38,0.86,9.46-0.28,12.05-3.92c2.24-3.15,2.12-7.6,0.25-10.97s-5.25-5.72-8.9-6.98c-3.65-1.26-7.56-1.51-11.42-1.49
		c-6.18,0.04-12.54,0.86-18.1,3.42c5.22-5.43,10.76-10.56,16.61-15.31c1.73-1.41,3.5-2.77,5.28-4.11
		c5.97,3.6,11.94,7.21,17.91,10.81c3.82,2.3,7.76,4.65,12.16,5.37c4.4,0.71,9.44-0.59,11.91-4.32c2.13-3.22,1.87-7.66-0.11-10.97
		c-1.98-3.31-5.44-5.54-9.13-6.68c-3.69-1.14-7.61-1.27-11.46-1.11c-5.51,0.22-11.14,1.06-16.18,3.19
		c6.2-4.33,12.68-8.26,19.4-11.75c6.79,0.32,13.58,0.63,20.38,0.95c4.46,0.21,9.04,0.4,13.26-1.07c4.22-1.47,8.03-5.02,8.43-9.46
		c0.35-3.84-2-7.62-5.32-9.59c-3.32-1.96-7.43-2.28-11.21-1.53c-3.78,0.76-7.3,2.51-10.62,4.48c-6.12,3.63-11.93,8.26-15.39,14.43
		c-0.02,0.01-0.04,0.01-0.07,0.03c-7.15,3.71-14.04,7.91-20.62,12.55c3.29-4.7,5.26-10.36,6.55-16c0.85-3.76,1.44-7.64,1-11.47
		c-0.44-3.83-2.01-7.64-4.9-10.19c-2.89-2.55-7.21-3.63-10.76-2.12c-4.11,1.75-6.32,6.46-6.42,10.92
		c-0.11,4.46,1.48,8.77,3.05,12.94c2.39,6.36,4.77,12.72,7.16,19.08c-7.88,5.92-15.28,12.47-22.11,19.58
		c2.29-5.59,2.88-11.88,2.71-17.97c-0.11-3.86-0.5-7.76-1.88-11.36c-1.38-3.6-3.84-6.9-7.28-8.66c-3.43-1.75-7.89-1.72-10.96,0.62
		c-3.55,2.71-4.52,7.82-3.51,12.17c1.01,4.35,3.61,8.12,6.17,11.78c3.89,5.56,7.78,11.13,11.67,16.69
		c-0.21,0.23-0.42,0.45-0.63,0.68c-6.83,7.54-13.04,15.63-18.56,24.16c1.75-6.54,1.06-13.61-0.51-20.24
		c-0.89-3.75-2.06-7.5-4.14-10.74c-2.08-3.25-5.16-5.98-8.88-7c-3.72-1.02-8.08-0.09-10.61,2.83c-2.93,3.37-2.84,8.57-0.98,12.63
		c1.87,4.05,5.18,7.22,8.43,10.28c5.1,4.81,10.19,9.62,15.29,14.43c-0.08,0.12-0.15,0.24-0.22,0.36l-0.2,0
		c0.05,0.03,0.09,0.06,0.14,0.1c-5.24,8.39-9.81,17.19-13.65,26.31c-0.86-6.02-3.54-11.79-6.76-17.01c-2.06-3.34-4.4-6.58-7.46-9.06
		c-3.06-2.47-6.91-4.13-10.84-3.92c-3.92,0.2-7.83,2.5-9.34,6.13c-1.75,4.2,0.01,9.2,3.12,12.51c3.11,3.32,7.33,5.31,11.45,7.23
		c5.85,2.73,11.7,5.45,17.55,8.18c0.16,0.11,0.32,0.23,0.48,0.34c-3.96,10.16-7,20.66-9.03,31.37c-0.21,1.13,1.51,1.68,1.73,0.54
		c2-10.53,4.97-20.85,8.83-30.83c5.18,3.66,10.36,7.31,15.55,10.97c3.64,2.57,7.41,5.2,11.75,6.22
		C1034.03,457.03,1039.15,456.08,1041.87,452.55z" class="color9fbc3e svgShape"></path>
    <g fill="#000000" class="color000000 svgShape">
      <path fill="#bc3e4b" d="M430.8,745.45c2.24,6.57,1.94,14.37,1.94,14.37s1.82,19.39-1.69,36.54c-1.28,6.06-3.16,15.34-9.47,25.11
			c-0.7,1-1.4,2.01-2.1,3.01c-0.72,0.98-1.47,1.92-2.3,2.78c-0.6,0.68-1.19,1.37-1.82,2.01c-0.31,0.37-0.62,0.7-0.96,1.02
			c-10.62,10.97-23.03,15.41-27.84,16.96c-4.65,1.39-21.48,5.96-40.29-0.42c-11.63-3.96-26.4-12.75-24.91-20.37
			c0.37-1.45,1.21-2.69,0.83-4.58c-0.61-3.78-4.92-5.27-10.44-7.78c-10.23-4.62-15.37-6.86-17.14-10.44
			c-0.87-1.63-1.32-5.84-2.25-14.18c-0.65-5.79-0.46-6.13-1.11-7.14c-3.35-4.88-11.57-0.18-20.75-3.72
			c-7.02-2.77-13.22-9.8-13.59-17.29c-0.14-4.41,1.82-5.56,2.53-13.88c0.49-5.88,0.68-8.91-0.36-11.69
			c-4.04-10.81-23.15-6.52-25.69-15.72c-1.25-4.55,2.06-10.43,5.22-16.05c3.31-5.7,5.32-6.47,6.39-8.92
			c6.3-13.95-38.38-38.19-34.87-44.42c2.69-4.72,35.82-1.87,55.48,8.38c3.02,1.65,8.83,5.01,15.99,3.43
			c8.28-1.75,10.05-8.27,15.76-8.28c2.88,0.07,4.47,1.7,18.25,17.58c4.37,5.09,7.39,8.63,10.52,7.75c3.07-0.83,3.9-5.32,8.29-6.41
			c0.69-0.24,2.22-0.48,4.68,0.31c8.17,2.46,15,12.51,18.24,17.51c6.52,9.97,8.97,15.58,11.6,14.9c2.58-0.79,1.97-6.57,6.36-9
			c3.15-1.65,7.04-0.59,9.35,0.62c3.26,1.74,4.42,4.88,6.92,14.49c2.58,9.86,2.64,11.47,4.22,16.64c2.56,8.95,4.92,17.08,8.8,17.02
			c3.51-0.06,4.64-6.55,11.06-8.61c0.27-0.1,5.19-1.59,9.35,0.62C427.79,739.08,429.69,742.15,430.8,745.45z" class="color9fbc3e svgShape"></path>
      <path fill="#ffffff" d="M412.53,761.9c3.57,4.99,0.01,11.27-1.65,16.29c-1.57,4.78-2.75,9.68-3.51,14.66
			c-1.46,9.48-1.34,19.15,0.2,28.61c-0.03-0.03-0.05-0.05-0.09-0.08c-8.1-7.65-16.9-14.65-25.41-21.69
			c-8.77-7.26-17.46-14.72-25.13-23.17c-6.39-7.06-11.55-14.87-16.43-22.92c0,0-0.01-0.01-0.01-0.01
			c1.13-10.53,6.31-19.89,8.31-30.18c1.76-9.01-0.08-19.83-8.95-24.45c-0.79-0.41-1.33,0.86-0.54,1.27
			c9.38,4.89,9.82,16.79,7.48,25.8c-2.25,8.66-6.12,16.79-7.43,25.68c-0.01-0.01-0.02-0.03-0.03-0.04
			c-0.57-0.95-1.14-1.91-1.71-2.86c-4.64-7.81-9.47-15.6-15.98-21.99c-4.48-4.45-9.34-8.48-14.31-12.33
			c0.48-9.91-1.92-20.3-7.38-28.65c-0.49-0.75-1.59,0.08-1.11,0.82c5.09,7.78,7.41,17.49,7.13,26.76c-0.26-0.21-0.52-0.38-0.77-0.59
			c-11.97-9.19-24.46-17.78-37.31-25.65c-1.12-0.68-2.27-1.38-3.41-2.04c-0.75-0.45-1.6,0.64-0.85,1.08
			c12.28,7.24,24.11,15.32,35.55,23.79c6.08,4.51,12.05,9.16,17.71,14.22c1.29,1.18,2.54,2.35,3.7,3.59c0,0,0,0,0.01,0.01
			c-4.42,2.77-9.71,1.27-14.44,0.26c-4.16-0.89-8.41-1.21-12.66-0.87c-8.39,0.67-16.5,3.82-23.16,8.98
			c-0.7,0.54,0.12,1.66,0.83,1.11c7.06-5.48,15.75-8.57,24.69-8.84c4.6-0.14,8.91,0.79,13.38,1.7c4.19,0.86,8.58,1.12,12.31-1.3
			c0.01-0.01,0.01-0.03,0.02-0.04c0,0,0.01,0.01,0.01,0.01c3.73,3.91,7.01,8.12,10,12.75c6.08,9.43,11.15,19.48,18.02,28.39
			c6.69,8.67,14.64,16.29,22.9,23.45c0.7,0.62,1.42,1.22,2.14,1.82c0,0,0.01,0,0.01,0.01c-11.42,3.08-23.46,6.21-35.25,3.34
			c-2.73-0.66-5.36-1.68-7.82-3.03c-2.38-1.31-4.64-2.9-7.24-3.78c-4.85-1.64-9.77-0.06-14.38,1.58c-0.84,0.3-0.34,1.59,0.5,1.29
			c2.64-0.94,5.33-1.88,8.13-2.14c2.88-0.27,5.48,0.45,8.02,1.79c2.5,1.31,4.81,2.89,7.43,3.98c2.35,0.98,4.83,1.68,7.33,2.13
			c11.49,2.09,23-0.97,34.04-3.95c0.19-0.05,0.28-0.16,0.35-0.29c0.01,0,0.01,0.01,0.02,0.01c10.74,9.1,22.02,17.73,32.14,27.5
			c0.03,0.03,0.06,0.06,0.09,0.09c0.07,0.11,0.14,0.2,0.25,0.25c0.01,0.01,0.02,0.02,0.03,0.03c2.09,2.03,4.14,4.09,6.08,6.23
			c0.34-0.32,0.65-0.65,0.96-1.02c-1.99-2.17-4.06-4.25-6.17-6.3c-0.01-0.01-0.01-0.01-0.02-0.01c-1.92-10.61-1.97-21.5-0.07-32.13
			c0.97-5.41,2.47-10.68,4.37-15.84c1.66-4.5,3.22-9.63,0.16-13.92C413.12,760.35,412.01,761.18,412.53,761.9z" class="colorffffff svgShape"></path>
    </g>
    <path fill="#991a27" d="M414.12,655.27c-1.68-3.41-6.51-4.23-9.89-2.53c-3.39,1.7-5.52,5.19-6.97,8.7
		c-2.34,5.69-3.25,11.37-3.95,17.34c-1.74-5.43-3.67-10.8-5.77-16.1c-1.39-3.5-2.85-6.97-4.39-10.41
		c7.64-3.82,14.1-9.97,18.28-17.42c1.58-2.83,2.84-6.31,1.41-9.22c-1.68-3.39-6.51-4.21-9.89-2.52c-3.38,1.69-5.52,5.15-6.96,8.65
		c-2.42,5.87-3.31,11.73-4.01,17.92c-4.86-10.55-10.47-20.76-16.93-30.4c6.79-4.97,12.08-11.97,14.98-19.88
		c1.11-3.04,1.81-6.69-0.07-9.32c-2.19-3.08-7.09-3.12-10.17-0.92c-3.07,2.2-4.63,5.96-5.5,9.64c-1.41,5.97-1.41,11.69-1.15,17.68
		c-6.96-10.06-15.11-19.86-25.31-26.68c-0.21-0.14-0.43-0.27-0.64-0.41c6.12-5.92,10.43-13.68,12.19-22.01
		c0.67-3.17,0.83-6.88-1.4-9.22c-2.61-2.74-7.47-2.08-10.19,0.54c-2.73,2.62-3.73,6.56-4.07,10.33c-0.59,6.64,0.43,12.76,1.69,19.21
		c-12-7.55-25.45-12.93-37.17-20.88c6.28-5.95,10.72-13.84,12.51-22.31c0.67-3.17,0.83-6.88-1.4-9.22
		c-2.61-2.74-7.47-2.08-10.19,0.54c-2.73,2.62-3.73,6.56-4.07,10.33c-0.61,6.82,0.48,13.09,1.79,19.73
		c-2.89-2.04-5.67-4.25-8.29-6.71c-5.29-4.99-9.46-11.06-12.55-17.7c7.84-4.12,14.36-10.71,18.36-18.62
		c1.46-2.89,2.57-6.43,1.02-9.27c-1.82-3.32-6.68-3.93-9.99-2.1c-3.31,1.83-5.29,5.38-6.59,8.93c-2.37,6.52-2.92,12.94-3.37,19.8
		c-4.77-10.83-6.72-23.06-5.99-34.6c6.61-4.57,11.91-11.02,15.08-18.41c1.28-2.98,2.16-6.58,0.43-9.31
		c-2.03-3.19-6.92-3.5-10.1-1.46c-3.19,2.04-4.94,5.71-6.01,9.34c-1.7,5.79-2.02,11.42-2.09,17.31c-0.11,0.19-0.2,0.41-0.22,0.68
		c-0.84,9.8,0.34,19.74,3.16,29.16c0.62,2.08,1.32,4.14,2.1,6.18c-5.34-5.71-12.25-9.94-19.78-12.06c-3.12-0.87-6.81-1.28-9.29,0.8
		c-2.9,2.43-2.56,7.31-0.13,10.21c2.44,2.89,6.3,4.15,10.04,4.73c6.97,1.08,13.48,0.33,20.42-0.58c1.82,4.2,4.03,8.22,6.78,11.87
		c4.16,5.53,9.22,10.02,14.73,13.94c-7.54-2.85-15.89-3.56-23.8-1.95c-3.17,0.64-6.64,1.97-7.9,4.95c-1.47,3.48,1.06,7.68,4.55,9.14
		c3.49,1.46,7.5,0.82,11.1-0.37c6.88-2.28,12.45-6.06,18.38-10.16c9.29,6.19,19.69,10.97,29.37,16.3c3.04,1.68,6.02,3.43,8.88,5.33
		c-8.02-3.51-17.13-4.5-25.71-2.77c-3.17,0.64-6.64,1.96-7.91,4.94c-1.48,3.48,1.05,7.68,4.53,9.15c3.49,1.47,7.5,0.83,11.1-0.36
		c7.04-2.32,12.71-6.22,18.8-10.42c3.03,2.06,5.93,4.31,8.63,6.87c4.94,4.67,9.34,9.9,13.39,15.36c1.08,1.45,2.13,2.92,3.15,4.41
		c-6.94-3.86-14.96-5.77-22.89-5.41c-3.23,0.15-6.86,0.92-8.57,3.67c-1.99,3.22-0.14,7.75,3.08,9.73c3.22,1.98,7.29,1.96,11.02,1.34
		c6.89-1.15,12.79-3.87,19.03-6.87c6.3,9.42,11.73,19.46,16.46,29.76c-6.03-5.68-13.72-9.59-21.88-11.06
		c-3.19-0.57-6.9-0.62-9.17,1.68c-2.66,2.69-1.85,7.53,0.85,10.17c2.7,2.65,6.67,3.53,10.45,3.75c7.17,0.42,13.68-1.01,20.63-2.61
		c0.62,1.37,1.22,2.75,1.82,4.12c3.25,7.57,6.18,15.31,8.66,23.19c-5.96-5.45-13.47-9.19-21.41-10.62c-3.19-0.57-6.9-0.62-9.17,1.68
		c-2.66,2.69-1.85,7.53,0.85,10.17c2.7,2.65,6.67,3.53,10.45,3.75c6.97,0.41,13.32-0.93,20.06-2.47c2.72,9.02,4.86,18.2,6.23,27.51
		c0.29,1.94,3.27,1.36,2.99-0.57c-1.39-9.4-3.56-18.67-6.32-27.77c7.67-3.85,14.16-10.05,18.36-17.57
		C414.29,661.7,415.56,658.18,414.12,655.27z" class="color73991a svgShape"></path>
    <g fill="#000000" class="color000000 svgShape">
      <rect width="731.48" height="11.04" x="327.36" y="128.81" fill="#7f2a33" class="color2a477f svgShape"></rect>
      <g fill="#000000" class="color000000 svgShape">
        <rect width="9.27" height="721.26" x="1049.2" y="129" fill="#7f2a33" class="color2a477f svgShape"></rect>
        <polygon fill="#7f2a33" points="1049.2 752.44 1049.2 769.21 1015.05 814.8 998.73 836.57 988.47 850.27 975.91 850.27 998.73 819.8 1012.65 801.23" class="color2a477f svgShape"></polygon>
        <polygon fill="#7f2a33" points="1057.78 752.44 1131.07 850.26 1118.51 850.26 1057.78 769.22" class="color2a477f svgShape"></polygon>
      </g>
      <g fill="#000000" class="color000000 svgShape">
        <rect width="9.27" height="721.26" x="323.08" y="129.31" fill="#7f2a33" class="color2a477f svgShape"></rect>
        <polygon fill="#7f2a33" points="323.08 752.75 249.79 850.57 262.36 850.57 323.08 769.52" class="color2a477f svgShape"></polygon>
        <polygon fill="#7f2a33" points="331.66 752.75 404.96 850.57 392.39 850.57 331.66 769.52" class="color2a477f svgShape"></polygon>
      </g>
      <polygon fill="#ffffff" points="385.27 128.82 385.27 589 385.27 852.05 998.73 852.05 998.91 852.05 998.91 836.34 998.91 589 998.91 128.82" class="colorffffff svgShape"></polygon>
      <path fill="#59161d" d="M996.4,146.77H387.78c-0.59-0.53-5.97-5.51-5.97-14.21c0-0.88,0.12-8.99,5.97-14.21
			c202.88,0,405.75,0,608.63,0c0.59,0.53,5.97,5.51,5.97,14.21C1002.37,133.44,1002.25,141.55,996.4,146.77z" class="color163059 svgShape"></path>
    </g>
    <g fill="#000000" class="color000000 svgShape">
      <path fill="#52151b" d="M1192.96 849.3H173.95c-1.7 0-3.08 1.24-3.08 2.76s1.38 2.76 3.08 2.76h1019.01c1.7 0 3.08-1.24 3.08-2.76S1194.66 849.3 1192.96 849.3zM424.6 910.25H253.1c-1.7 0-3.08 1.24-3.08 2.76s1.38 2.76 3.08 2.76H424.6c1.7 0 3.08-1.24 3.08-2.76S426.3 910.25 424.6 910.25zM1002.2 910.25h-56.56c-1.7 0-3.08 1.24-3.08 2.76s1.38 2.76 3.08 2.76h56.56c1.7 0 3.08-1.24 3.08-2.76S1003.9 910.25 1002.2 910.25z" class="color2e1552 svgShape"></path>
    </g>
    <g fill="#000000" class="color000000 svgShape">
      <g fill="#000000" class="color000000 svgShape">
        <path fill="#f72f44" d="M727.11,528.93l-65.99-1.07c-5.94-0.1-10.86,4.78-11.04,10.95l-1.06,36.62
				c-0.18,6.37,4.74,11.63,10.87,11.63h66.97c6,0,10.86-5.04,10.87-11.27l0.07-35.54C737.82,534.07,733.06,529.03,727.11,528.93z" class="colorf7a32f svgShape"></path>
        <g fill="#000000" class="color000000 svgShape">
          <ellipse cx="693.34" cy="678.75" fill="#f72f44" rx="36.86" ry="15.93" class="colorf7a32f svgShape"></ellipse>
          <path fill="#f72f44" d="M694.03,676.45h-1.52c-1.77,0-3.2-1.43-3.2-3.2v-84.27c0-1.77,1.43-3.2,3.2-3.2h1.52
					c1.77,0,3.2,1.43,3.2,3.2v84.27C697.23,675.01,695.79,676.45,694.03,676.45z" class="colorf7a32f svgShape"></path>
        </g>
      </g>
      <polygon fill="#ef8994" points="679.91 390.93 681.37 376.76 704.97 376.76 706.06 391.29 704.08 414.67 682.09 413.44" class="coloref8989 svgShape"></polygon>
      <g fill="#000000" class="color000000 svgShape">
        <path fill="#ffffff" d="M677,396.37l2.91-5.45c0,0,10.13,5.08,11.98,5.08c2.54,0,10.15-1.72,14.16-4.72l2.9,5.08
				c0,0,6.38,17.91-4.26,41.27c-10.63,23.36-11.73,43.05-11.73,43.05s-8.11-32.5-11.98-41.11
				C669.75,414.53,672.45,400.91,677,396.37z" class="colorffffff svgShape"></path>
        <path fill="#a54751" d="M708.96,396.37c12.65,5.5,27.01,8.75,43.57,9.08c0,0,30.5,72.62,37.76,95.14c7.26,22.51,13.8,42.5,13.8,42.5
				l-22.85,4.34l-39.26-92.42c0,0-8.34,49.21,3.2,75.16c8.86,19.93,2.7,35.79,2.7,35.79s-40.74,19.25-49.46,2.53
				c-8.71-16.71-10.89-99.5,3.63-125.64C716.57,416.73,708.96,396.37,708.96,396.37z" class="color4762a5 svgShape"></path>
        <path fill="#a54751" d="M677,396.37c-12.87,5.77-27.31,9.04-43.57,9.08c0,0-30.5,72.62-37.76,95.14c-7.26,22.51-13.8,42.5-13.8,42.5
				l22.85,4.34l39.26-92.42c0,0,8.34,49.21-3.2,75.16c-8.86,19.93-2.7,35.79-2.7,35.79s40.74,19.25,49.46,2.53
				c8.71-16.71,10.89-99.5-3.63-125.64C669.39,416.73,677,396.37,677,396.37z" class="color4762a5 svgShape"></path>
        <g fill="#000000" class="color000000 svgShape">
          <path fill="#7c2f37" d="M692.26,396.74c0,0,4.72-4.72,7.63-4.36c1.94,0.24,2.54,13.07-0.36,13.07c-1.85,0-7.26-3.99-7.26-3.99
					s-5.45,3.99-8.35,3.99c-1.85,0-1.09-13.8,1.09-13.44C688.79,392.65,692.26,396.74,692.26,396.74z" class="color2f497c svgShape"></path>
          <rect width="2.18" height="6.54" x="691.17" y="395.65" fill="#7c2f37" class="color2f497c svgShape"></rect>
        </g>
        <g fill="#000000" class="color000000 svgShape">
          <g fill="#000000" class="color000000 svgShape">
            <circle cx="694.26" cy="490.6" r="3.09" fill="#ffffff" class="colorffffff svgShape"></circle>
            <circle cx="694.26" cy="490.6" r="2" fill="#7c2f37" class="color2f497c svgShape"></circle>
          </g>
          <g fill="#000000" class="color000000 svgShape">
            <circle cx="694.26" cy="508.4" r="3.09" fill="#ffffff" class="colorffffff svgShape"></circle>
            <circle cx="694.26" cy="508.4" r="2" fill="#7c2f37" class="color2f497c svgShape"></circle>
          </g>
          <g fill="#000000" class="color000000 svgShape">
            <circle cx="694.26" cy="525.83" r="3.09" fill="#ffffff" class="colorffffff svgShape"></circle>
            <circle cx="694.26" cy="525.83" r="2" fill="#7c2f37" class="color2f497c svgShape"></circle>
          </g>
        </g>
        <g fill="#000000" class="color000000 svgShape">
          <rect width="21.42" height="5.45" x="713.32" y="446.85" fill="#ffffff" class="colorffffff svgShape"></rect>
          <polygon fill="#ffffff" points="717.31 446.85 723.85 435.59 730.75 446.85" class="colorffffff svgShape"></polygon>
        </g>
      </g>
    </g>
    <g fill="#000000" class="color000000 svgShape">
      <path fill="#910f1d" d="M275.9,303.63l25.42-17.58c0,0,96.36,46.81,96.32,46.91c-0.09,0.21-22.29,10.76-39.12,29.51
			c-24.72,27.54-29.07,44.84-29.07,44.84l-67.05-56.3L275.9,303.63z" class="color910f0f svgShape"></path>
      <rect width="18.04" height="8.47" x="461.82" y="373.03" fill="#f72f44" transform="rotate(-50.604 470.8 377.248)" class="colorf7a32f svgShape"></rect>
      <rect width="7.6" height="465.9" x="461.84" y="383.41" fill="#f72f44" class="colorf7a32f svgShape"></rect>
      <rect width="7.11" height="222.36" x="375.83" y="267.86" fill="#f72f44" transform="rotate(-54.098 379.39 379.045)" class="colorf7a32f svgShape"></rect>
      <polygon fill="#f72f44" points="469.4 676.77 578.49 849.87 587.57 850.14 587.63 850.11 587.57 850.02 587.47 849.87 475.83 672.73" class="colorf7a32f svgShape"></polygon>
      <g fill="#000000" class="color000000 svgShape">
        <path fill="#be1e2f" d="M486.03,348.81l-34.14-19.47c-6.55-3.74-14.89-1.45-18.62,5.09c-1.75,3.06-2.18,6.52-1.47,9.71
				c0.03,0.13,0.06,0.26,0.09,0.38c0.87,3.48,3.11,6.62,6.47,8.53l34.14,19.47l10.08-17.67l0.67-1.18L486.03,348.81z" class="colorb71a1a svgShape"></path>
        <path fill="#eadcdd" d="M486.03,348.81l-34.14-19.47c-6.55-3.74-14.89-1.45-18.62,5.09c-1.75,3.06-2.18,6.52-1.47,9.71
				c0.03,0.13,0.06,0.26,0.09,0.38c8.05-14.46,28.25-4.19,41.29,2.69c2.4,1.27,6.38,3.86,10.07,6.47L486.03,348.81z" class="colordcdcea svgShape"></path>
        <path fill="#be1e2f" d="M516.47,355.83c-8.2-4.68-17.41-5.3-24.65-2.41l-12.4,21.73c0.28,1.79,0.78,3.58,1.48,5.32
				c2.31,5.76,6.85,11.08,13.14,14.67l20.18-35.37L516.47,355.83z" class="colorb71a1a svgShape"></path>
        <path fill="#eadcdd" d="M516.47,355.83c-8.2-4.68-17.41-5.3-24.65-2.41l-12.4,21.73c0.28,1.79,0.78,3.58,1.48,5.32
				c3.95-11.64,13.41-21.22,20.45-22.49c5.2-0.93,9.64,0.26,12.88,1.79L516.47,355.83z" class="colordcdcea svgShape"></path>
        <rect width="28.52" height="7.13" x="438.69" y="345.62" fill="#59161d" transform="rotate(29.704 452.975 349.203)" class="color163059 svgShape"></rect>
        <rect width="7.31" height="25.07" x="478.79" y="349.94" fill="#59161d" transform="rotate(29.704 482.465 362.492)" class="color163059 svgShape"></rect>
      </g>
      <path fill="#910f1d" d="M299.24 285.78c62.24-21.86 70.69-43.24 138.99-44.18 0 0-26.9 27.03-37.77 65.83-5.39 19.25-2.82 25.53-2.82 25.53L299.24 285.78zM262.09 346.94c-12.87 39.23-19.85 92-4.58 120.87 0 0 16.11-25.73 48.9-49.15 16.27-11.62 23.04-11.34 23.04-11.34L262.09 346.94z" class="color910f0f svgShape"></path>
      <path fill="#be1e2f" d="M342.13 248.75c49.25-18.55 97.25-7.15 97.25-7.15s-42.79-2.2-65.3 24.55c-17.57 20.89-17.25 33.37-17.25 33.37s-60.12-21.58-69.58-21.15l.03-.53C287.28 277.84 303.3 263.37 342.13 248.75zM242.54 377.07c-6.09 52.28 13.33 85.54 13.33 85.54s-9.24-30.44 11.28-58.75c16.02-22.1 28.21-24.81 28.21-24.81s-35.48-53.12-37.35-62.4l-.51.16C257.51 316.81 247.34 335.86 242.54 377.07z" class="colorb71a1a svgShape"></path>
      <path fill="#be1e2f" d="M296.26,278.79c36.25,9.53,60.71,20.8,60.71,20.8s-19.3,2.67-41.4,32.09
			c-18.99,25.27-20.2,47.37-20.2,47.37s-31.24-40.82-37.85-62.24c-0.3-0.97,8.61-15.43,10.85-18.32
			c18.89-24.4,20.63-20.87,22.95-20.48C292.88,278.26,294.55,278.34,296.26,278.79z" class="colorb71a1a svgShape"></path>
      <rect width="71.89" height="5.69" x="461.66" y="775.69" fill="#f72f44" transform="rotate(-30 497.555 778.545)" class="colorf7a32f svgShape"></rect>
      <polygon fill="#f72f44" points="463.11 676.77 354.02 849.87 344.94 850.14 344.89 850.11 344.94 850.02 345.04 849.87 456.69 672.73" class="colorf7a32f svgShape"></polygon>
      <rect width="5.69" height="71.89" x="432.07" y="742.59" fill="#f72f44" transform="rotate(-60 434.916 778.554)" class="colorf7a32f svgShape"></rect>
      <rect width="8.36" height="22.52" x="461.46" y="781.6" fill="#59161d" transform="rotate(-180 465.64 792.859)" class="color163059 svgShape"></rect>
      <rect width="26.59" height="6.84" x="453.07" y="669.71" fill="#59161d" transform="rotate(-180 466.363 673.129)" class="color163059 svgShape"></rect>
      <circle cx="463.26" cy="438.13" r="13.83" fill="#f72f44" class="colorf7a32f svgShape"></circle>
      <circle cx="463.26" cy="438.13" r="7.73" fill="#59161d" class="color163059 svgShape"></circle>
    </g>
    <g fill="#000000" class="color000000 svgShape">
      <rect width="8.1" height="438.84" x="951.67" y="352.97" fill="#be1e2f" class="colorb71a1a svgShape"></rect>
      <rect width="14.75" height="15.85" x="948.76" y="342.37" fill="#59161d" class="color163059 svgShape"></rect>
      <g fill="#000000" class="color000000 svgShape">
        <path fill="#930d1b" d="M924.52,344.36c11.82,0,23.64,0,35.46,0c0.43-0.04,2.48-0.25,4.06-2.03c3.24-5.19,0.8-13.28,1.52-19.32
				c0.23-3.22-4.26-5.76-6.36-5c-11.56,0-23.12,0-34.68,0C924.52,326.8,924.52,335.58,924.52,344.36z" class="color930d0d svgShape"></path>
        <g fill="#000000" class="color000000 svgShape">
          <path fill="#59161d" d="M931.81 327.79h24.44c.92.02.67-1.26.7-1.83 0-.39-.31-.7-.7-.7h-24.44C930.78 325.17 930.81 327.87 931.81 327.79zM931.81 337.06h24.44c.92.02.67-1.26.7-1.83 0-.39-.31-.7-.7-.7h-24.44C930.78 334.45 930.81 337.15 931.81 337.06z" class="color163059 svgShape"></path>
        </g>
      </g>
      <path fill="#7f0f1b" d="M863.21,227.9c-21.36,2.96-42.71,5.92-64.07,8.88c12.26,58.57,24.52,117.13,36.78,175.7
			c22.63,3.06,45.26,6.12,67.89,9.18C890.27,357.08,876.74,292.49,863.21,227.9z" class="color7f0f0f svgShape"></path>
      <path fill="#be1e2f" d="M952.44,664.46l3.49,5.54l113.01,179.3h9.34l0.17-0.11L959.29,660.15
			C957.58,661.22,954.14,663.39,952.44,664.46z" class="colorb71a1a svgShape"></path>
      <path fill="#be1e2f" d="M833.41,849.2l0.17,0.11h9.34L955.93,670l3.49-5.54c-1.71-1.08-5.14-3.24-6.85-4.32L833.41,849.2z" class="colorb71a1a svgShape"></path>
      <path fill="#be1e2f" d="m900.27 755.36 5.03-6.34 50.66 40.17 50.66-40.17 5.03 6.34-55.34 43.88c-.23 0-.46 0-.7 0L900.27 755.36zM917.93 276.69l20.12 96.04c2.23 10.64-1.59 21.65-9.93 28.62-8.11 6.77-16.21 13.55-24.32 20.32l-40.6-193.76c14.36 10.3 28.72 20.61 43.08 30.91C912.27 263.11 916.42 269.48 917.93 276.69z" class="colorb71a1a svgShape"></path>
      <polygon fill="#ffe1e4" points="859.78 231.71 803.46 239.96 839.41 408.3 898.59 416.93" class="colorffe1e1 svgShape"></polygon>
      <rect width="17.78" height="21.86" x="946.83" y="646.7" fill="#59161d" class="color163059 svgShape"></rect>
    </g>
    <g fill="#000000" class="color000000 svgShape">
      <path fill="#ffc2c8" d="M1023.19 520.08c.81-3.64 12.64-2.04 14.03-3.21 3.7-3.11-5.15-4.34-3.34-7.66 1.67-3.07 15.71 2.71 15.71 2.71l2.25 10.64C1035.51 534.14 1021.32 528.45 1023.19 520.08zM944.23 788.52c0 0 0 .01 0 .04 3.9 25.6 8.17 46.02 8.17 46.02l14.88 2.35c.77-8.41 3.03-26.34 4.81-46.45l-.12-.35C963.76 792.85 954.51 792.29 944.23 788.52z" class="colorffd4c2 svgShape"></path>
      <path fill="#473e3f" d="M918.03,845.95c-0.01-0.1,0.02-0.19,0.07-0.27c-0.1-0.34-0.17-0.7-0.19-1.09c-0.02-4.66,4.35-6.01,9.72-7.1
			c0.45-0.1,0.91-0.19,1.37-0.28c0.43-0.08,0.85-0.16,1.28-0.25c0.5-0.1,1.01-0.2,1.51-0.3c0.61-0.13,1.23-0.26,1.84-0.41
			c0.45-0.11,0.89-0.21,1.33-0.33c0.35-0.09,0.69-0.19,1.04-0.29c0.49-0.15,0.97-0.3,1.45-0.47c0.46-0.16,0.92-0.34,1.36-0.53
			c0.37-0.15,0.72-0.31,1.07-0.49c0.24-0.12,0.48-0.24,0.7-0.37c0.51-0.28,1-0.59,1.46-0.93c0.33-0.23,0.64-0.48,0.94-0.75
			c0.28-0.24,0.55-0.51,0.81-0.78c0.18-0.19,0.34-0.38,0.51-0.59c0.41-0.5,0.79-1.06,1.12-1.65c0.3-0.55,0.57-1.15,0.79-1.79
			c0.02-0.05,0.04-0.11,0.06-0.16c2.49-7.49,10.66,0.95,10.66,0.95c5.65,4.91,8.4,1,9.45-1.34c0.36-0.81,0.52-1.44,0.52-1.44
			c0.09-0.01,0.17-0.02,0.25-0.03c4.05-0.24,3.48,7.54,3.85,7.82c0,0,0,0,0,0c1.21,1.18,2.27,6.28,1.3,7.25c0,0,0,0-0.01,0
			c0.47,0.63,0.6,6.99-0.2,7.74c-4.07,3.81-12.67-0.12-31.83,3.07C920.62,854.43,918.25,848.4,918.03,845.95z" class="color3e4647 svgShape"></path>
      <path fill="#ffc2c8" d="M1058.73,800.54c0,0,0.01,0.01,0.04,0.02c25.79,8.64,46.92,14.46,46.92,14.46l9.33-12.77
			c-7.48-4.76-13.95-7.58-31.88-18.9C1083.14,783.35,1067.18,792.75,1058.73,800.54z" class="colorffd4c2 svgShape"></path>
      <path fill="#473e3f" d="M1099.8,852.59c-0.1-0.04-0.17-0.11-0.22-0.19c-0.36-0.07-0.73-0.18-1.11-0.35
			c-4.36-2.22-3.52-6.95-1.97-12.49c0.12-0.47,0.26-0.94,0.4-1.41c0.13-0.44,0.26-0.88,0.38-1.32c0.15-0.52,0.29-1.04,0.44-1.56
			c0.18-0.63,0.35-1.27,0.5-1.91c0.12-0.47,0.23-0.94,0.33-1.41c0.08-0.37,0.16-0.74,0.23-1.11c0.1-0.53,0.18-1.05,0.26-1.58
			c0.07-0.51,0.13-1.02,0.16-1.52c0.03-0.41,0.05-0.82,0.06-1.23c0-0.28,0-0.56-0.01-0.84c-0.02-0.61-0.07-1.22-0.17-1.81
			c-0.06-0.42-0.14-0.83-0.25-1.24c-0.09-0.38-0.21-0.76-0.34-1.13c-0.09-0.26-0.19-0.51-0.3-0.75c-0.27-0.63-0.61-1.24-1.01-1.84
			c-0.37-0.55-0.8-1.08-1.29-1.6c-0.04-0.04-0.08-0.09-0.12-0.13c-5.8-5.92,6-9.51,6-9.51c7.3-2.92,4.97-7.37,3.28-9.47
			c-0.58-0.73-1.09-1.18-1.09-1.18c0.03-0.09,0.06-0.17,0.1-0.25c1.71-3.9,8.71,0.36,9.16,0.16c0,0,0,0,0,0
			c1.68-0.56,6.95,0.9,7.39,2.27c0,0,0,0,0,0.01c0.82-0.14,6.82,2.8,7.14,3.91c1.6,5.63-6.2,11.77-12.41,31.21
			C1108.96,854.24,1102.19,853.55,1099.8,852.59z" class="color3e4647 svgShape"></path>
      <path fill="#ad2836" d="M1064.9,553.63l-16.5,31.38c-14.73,2.82-41.56-7.27-50.57-14.3l3-22.66
			C1018.6,552.91,1047.87,550.26,1064.9,553.63z" class="colorad2b28 svgShape"></path>
      <path fill="#ad2836" d="M1029 582.12c-.51-8.15 2.01-28.51 4.95-30.7l34.97 1.96c0 0 4.32 11.24 3.03 20.21C1067.25 606.18 1029 582.12 1029 582.12zM1007.38 549.49l-39.48-25.6-9.55 12.04c0 0 29.96 31.57 44.12 37.16L1007.38 549.49z" class="colorad2b28 svgShape"></path>
      <path fill="#f43448" d="M975.88,722.93c3.09,26.15-4.19,85.78-3.9,97.62c-10.29,1.57-20.31,1.75-29.98-0.04
			c-0.13-7.07-8.61-98.32-2.91-111.74C939.18,708.59,975.19,716.97,975.88,722.93z" class="colorf49d34 svgShape"></path>
      <path fill="#f43448" d="M1087.6,705.98c-25.27,23.8-91.87,25.31-123.66,26.97c-4.37,0.23-26.44-19.75-25.09-24.28
			c6.46-21.65,102.93-43.16,127.15-41.32L1087.6,705.98z" class="colorf49d34 svgShape"></path>
      <path fill="#ff4357" d="M1018.72,751.43c27.06,5.68,59.64,30.83,78.8,35.75c-3.66,10.76-8.87,22.6-13.78,26.98
			c-16.09-5.91-85.25-23.32-96.02-36.93c-0.01,0-0.01,0-0.01,0c-0.17-0.15,10-19.58,10-19.58l3.59-6.61
			C1006.68,749.83,1012.56,750.12,1018.72,751.43z" class="colorffae43 svgShape"></path>
      <path fill="#ff4357" d="M1111.31,696.3c-13.23,45.69-62.44,55.59-85.87,89.68c-2.6,3.79-38.23-3.69-37.72-8.63
			c3.17-30.83,42.42-68.72,77.34-105.31L1111.31,696.3z" class="colorffae43 svgShape"></path>
      <path fill="#ffbdc4" d="M1073.6,546.46c-5.63,17.47-23.81,13.76-22.61,2.13c1.34-1.57,1.9-3.41,2.08-5.57
			c0.23-2.72-0.15-5.92-0.29-9.65c-0.03-0.63-0.05-1.28-0.05-1.95l1.56-0.33l3.69-0.78l11.77-2.47c0.06,1.18,0.11,2.43,0.14,3.72
			c0.15,4.32,0.34,8.95,1.46,11.95C1071.85,544.91,1072.57,545.96,1073.6,546.46z" class="colorffd0bd svgShape"></path>
      <path fill="#df3345" d="M1116.41,693.46c-10.36,19.49-103.34,4.93-98.39-10.02c18.34-55.42-16.35-121.1,30.9-134.32
			c0.67-0.2,1.36-0.37,2.07-0.54c0,0-0.09,4.04,3.45,6.36c4.49,2.95,16.2-2.23,19.17-8.49c1.38,0.36,2.71,0.76,3.99,1.22
			C1127.27,565.39,1104.01,660.02,1116.41,693.46z" class="colordf3933 svgShape"></path>
      <path fill="#f7d9dc" d="M1065.51,678.87c0.03-0.03,0.05-0.05,0.07-0.08C1065.6,678.82,1065.58,678.85,1065.51,678.87z" class="colorf7e9d9 svgShape"></path>
      <g fill="#000000" class="color000000 svgShape">
        <path fill="#87232e" d="M1089.74,477.55c-4.37-7.91-14.5-15.65-31.58-14.43c-17.07,1.22-29.92,16.05-28.7,33.12
				s16.43,35.2,33.5,33.98C1080.03,529.01,1103.04,501.62,1089.74,477.55z" class="color874c23 svgShape"></path>
        <g fill="#000000" class="color000000 svgShape">
          <path fill="#ffc2c8" d="M1025.48,473.54c0,0-13.05,26.28-5.66,48.18c3.77,11.17,14.67,22.5,28.83,21.07
					c22.48-2.27,27.64-17.92,28.8-27.17c1.85-14.73,1.23-29.85-2-38.42L1025.48,473.54z" class="colorffd4c2 svgShape"></path>
        </g>
        <path fill="#ffc2c8" d="M1084.78,498.36c-2.38-4.05-7.67,1.99-7.67,1.99l-1.27,15.79C1087.39,515.33,1087.16,502.41,1084.78,498.36
				z" class="colorffd4c2 svgShape"></path>
        <g fill="#000000" class="color000000 svgShape">
          <ellipse cx="1057.71" cy="507.88" fill="#312224" rx="2.96" ry="4.23" transform="rotate(-1.403 1057.504 506.636)" class="color222731 svgShape"></ellipse>
          <ellipse cx="1029.12" cy="508.24" fill="#312224" rx="2.64" ry="3.77" transform="rotate(-4.997 1029.601 508.698)" class="color222731 svgShape"></ellipse>
          <path fill="#f2d5d8" d="M1039.32,511.38c1.28-2.44,3.71-4.5,3.69-7.52c0.02-0.49,0.76-0.58,0.87-0.08c1.82,3.7-2.77,6.17-2.8,9.03
					c-0.03,3.56,4.65,4.28,2.89,4.48C1041.84,517.52,1037.79,515.73,1039.32,511.38z" class="colorf2e0d5 svgShape"></path>
          <path fill="#87232e" d="M1053.25 501.02c.15-.18.32-.35.5-.51.39-.36.81-.63 1.28-.87.87-.44 1.86-.61 2.83-.54 1.89.13 3.38 1.4 4.23 3.03.3.58-.68 1.1-1.02.54-.36-.61-.82-1.03-1.47-1.33-.58-.26-1.24-.46-1.83-.44-.33.01-.62.05-.88.13-.18.06-.36.12-.54.2-.18.08-.18.08-.33.17-.31.19-.55.38-.73.57-.35.36-.56.8-1.05.99-.59.22-1.39-.2-1.4-.88C1052.85 501.67 1052.97 501.35 1053.25 501.02zM1031.84 500.91c-.16-.13-.34-.25-.52-.36-.4-.25-.81-.42-1.27-.54-.84-.24-1.73-.22-2.57 0-1.63.43-2.72 1.79-3.19 3.36-.17.56.78.85.98.3.22-.59.54-1.04 1.06-1.4.46-.33 1.01-.61 1.53-.69.29-.05.55-.06.79-.03.17.02.34.05.5.09.17.04.17.04.32.1.3.12.54.24.74.38.37.26.62.6 1.08.69.55.1 1.18-.4 1.07-1C1032.3 501.41 1032.14 501.15 1031.84 500.91z" class="color874c23 svgShape"></path>
          <g fill="#000000" class="color000000 svgShape">
            <g fill="#000000" class="color000000 svgShape">
              <path fill="#942531" d="M1038.97,523.85c0.03,1.59,0.73,3.02,1.86,4.07c1.21,1.13,2.91,1.82,4.78,1.79
							c2.01-0.04,3.78-0.9,4.95-2.23c0.93-1.06,1.48-2.41,1.46-3.87c-0.06-3.3-4.2-0.74-6.64-0.69
							C1043.34,522.96,1038.9,520.55,1038.97,523.85z" class="color942525 svgShape"></path>
            </g>
            <g fill="#000000" class="color000000 svgShape">
              <path fill="#ff7886" d="M1040.82,527.92c1.21,1.13,2.91,1.82,4.78,1.79c2.01-0.04,3.78-0.9,4.95-2.23
							c-1-0.97-2.77-1.59-4.78-1.55C1043.59,525.97,1041.72,526.78,1040.82,527.92z" class="colorff7878 svgShape"></path>
            </g>
          </g>
          <ellipse cx="1058.83" cy="516.15" fill="#ff949f" rx="7.21" ry="2.96" transform="rotate(-4.997 1059.332 516.621)" class="colorffb394 svgShape"></ellipse>
          <ellipse cx="1028.78" cy="516.82" fill="#ff949f" rx="5.71" ry="2.35" transform="rotate(-4.997 1029.258 517.285)" class="colorffb394 svgShape"></ellipse>
          <circle cx="1056.86" cy="506.72" r=".82" fill="#ffffff" class="colorffffff svgShape"></circle>
          <circle cx="1028.41" cy="506.94" r=".73" fill="#ffffff" class="colorffffff svgShape"></circle>
        </g>
        <path fill="#f2d5d8" d="M1083.06,501.84c-0.84-0.4-2.05-0.21-2.48,0.68c-0.19,0.39,0.34,0.74,0.59,0.36
				c0.19-0.29,0.55-0.44,0.89-0.33c0.3,0.09,0.56,0.43,0.7,0.71c0.42,0.83,0.02,1.85-0.3,2.65c-0.32,0.8-0.75,1.55-1.25,2.25
				c-0.53,0.74-1.27,1.29-1.8,2.02c-0.51,0.69,0.44,1.67,1.15,1.21c0.55-0.35,0.96-0.9,1.35-1.42c0.36-0.48,0.69-0.98,0.99-1.5
				c0.6-1.07,1.1-2.26,1.31-3.48C1084.37,503.91,1084.18,502.38,1083.06,501.84z" class="colorf2e0d5 svgShape"></path>
        <path fill="#87232e" d="M1033.8,484.67c6.01,0.3,11.48-0.74,16.06-3.09c-1.46,2.33-3.61,4.23-6.1,5.4
				c8.08-0.52,17.33-1.56,23.84-6.37c2.93,3.55,5.96,8.89,5.26,13.44c-1.18,7.64-0.2,11.68,4.07,13.41
				c1.32-10.7,12.34-9.44,11.93-24.56c-0.36-13.59-11.5-14.73-11.5-14.73s-3.38-11.45-16.73-13.64c-9.18-1.51-20.23,1.09-28.61,5.27
				C1020.53,465.52,1014.2,483.68,1033.8,484.67z" class="color874c23 svgShape"></path>
      </g>
      <g fill="#000000" class="color000000 svgShape">
        <path fill="#866568" d="M926.58,518.17l3.55,0.54l0.15-0.98c0.4-2.67,2.78-4.52,5.3-4.14l0.34,0.05c0.24-1.57,1.63-2.66,3.12-2.43
				l5.89,0.89c1.48,0.22,2.5,1.68,2.26,3.24l6.77,1.02l0.45-3c0.29-1.93,2.01-3.27,3.84-2.99l2.27,0.34l0.31-2.02
				c0.17-1.12,1.16-1.89,2.22-1.73l15.71,2.38c1.06,0.16,1.78,1.19,1.61,2.31l-0.31,2.02l2.27,0.34c1.83,0.28,3.07,2.06,2.78,3.99
				l-0.45,3l4.11,0.62c2.53,0.38,4.25,2.85,3.84,5.52l-4.71,31.1c-0.4,2.67-2.78,4.52-5.3,4.14l-53.18-8.05
				c-2.37-0.36-4.03-2.55-3.89-5.03l-3.57-0.54c-1.83-0.28-3.08-2.07-2.78-4l3.57-23.61C923.03,519.24,924.75,517.9,926.58,518.17z" class="color6b6586 svgShape"></path>
        <path fill="#725457" d="M953.13,521.58l-35.7-5.4l-3.8,25.14l35.7,5.4c3.6,0.54,7.37-4.64,8.42-11.59S956.73,522.13,953.13,521.58
				z" class="color565472 svgShape"></path>
        <ellipse cx="915.53" cy="528.75" fill="#4d3134" rx="12.71" ry="9.26" transform="rotate(-81.396 915.56 528.78)" class="color31314d svgShape"></ellipse>
        <ellipse cx="915.53" cy="528.75" fill="#dbc5c7" rx="10.72" ry="7.81" transform="rotate(-81.396 915.56 528.78)" class="colorc6c5db svgShape"></ellipse>
        <path fill="#725457" d="M970.44,554.44l-0.95-0.14c-1.1-0.17-1.86-1.2-1.69-2.3l3.67-24.25c0.17-1.1,1.2-1.86,2.3-1.69l0.95,0.14
				c1.1,0.17,1.86,1.2,1.69,2.3l-3.67,24.25C972.57,553.85,971.54,554.61,970.44,554.44z" class="color565472 svgShape"></path>
      </g>
      <path fill="#ffc2c8" d="M981.91,527.92c3.51,1.26,0.46,12.79,1.44,14.32c2.63,4.06,4.94-4.57,8.01-2.36
			c2.84,2.04-4.08,13.5-4.08,13.5l-13.05,3.42C964.77,539.16,973.84,525.03,981.91,527.92z" class="colorffd4c2 svgShape"></path>
      <path fill="#f7485b" d="M1022.22,606.89l-33.97-54.38l-15.15,4.05c3.5,12.32,17.88,66.92,38.54,81.61L1022.22,606.89z" class="colorf74e48 svgShape"></path>
      <path fill="#f7485b" d="M1011.55,637.98l-15.75-25.51l67.86-38.01c0,0,26.93,27.43,14.43,37.45
			C1052.46,632.47,1013.2,639.77,1011.55,637.98z" class="colorf74e48 svgShape"></path>
      <path fill="#f7485b" d="M1049.42,627.49l-18.45-34.72c0,0,43.84-37.97,58.49-20.11C1112.94,601.28,1049.42,627.49,1049.42,627.49z" class="colorf74e48 svgShape"></path>
    </g>
    <g fill="#000000" class="color000000 svgShape">
      <rect width="191.32" height="171.97" x="597.32" y="678.6" fill="#a54751" class="color4762a5 svgShape"></rect>
      <rect width="41.14" height="171.54" x="597.32" y="678.6" fill="#89363f" class="color365289 svgShape"></rect>
    </g>
    <path fill="#fca9b2" d="m265.31 176.7-3.62-18.51c-.06-.3-.29-.54-.6-.61l-18.43-4c-.82-.18-.81-1.36.02-1.52l18.51-3.62c.3-.06.54-.29.61-.6l4-18.43c.18-.82 1.36-.81 1.52.02l3.62 18.51c.06.3.29.54.6.61l18.43 4c.82.18.81 1.36-.02 1.52l-18.51 3.62c-.3.06-.54.29-.61.6l-4 18.43C266.65 177.54 265.48 177.53 265.31 176.7zM958.82 93.38l-2.15-10.98c-.04-.18-.17-.32-.35-.36l-10.93-2.37c-.49-.11-.48-.8.01-.9l10.98-2.15c.18-.04.32-.17.36-.35l2.37-10.93c.11-.49.8-.48.9.01l2.15 10.98c.04.18.17.32.35.36l10.93 2.37c.49.11.48.8-.01.9l-10.98 2.15c-.18.04-.32.17-.36.35l-2.37 10.93C959.62 93.87 958.92 93.87 958.82 93.38z" class="colorfca9a9 svgShape"></path>
    <path fill="#f98a96" d="m231.65 288.8-2.49-12.7c-.04-.21-.2-.37-.41-.42l-12.65-2.75c-.56-.12-.56-.93.01-1.04l12.7-2.49c.21-.04.37-.2.42-.41l2.75-12.65c.12-.56.93-.56 1.04.01l2.49 12.7c.04.21.2.37.41.42l12.65 2.75c.56.12.56.93-.01 1.04l-12.7 2.49c-.21.04-.37.2-.42.41l-2.75 12.65C232.57 289.37 231.76 289.36 231.65 288.8zM648.08 87.01l-3.38-17.25c-.06-.28-.27-.51-.56-.57l-17.17-3.73c-.77-.17-.76-1.26.01-1.41l17.25-3.38c.28-.06.51-.27.57-.56l3.73-17.17c.17-.77 1.26-.76 1.41.01l3.38 17.25c.06.28.27.51.56.57l17.17 3.73c.77.17.76 1.26-.01 1.41l-17.25 3.38c-.28.06-.51.27-.57.56l-3.73 17.17C649.33 87.79 648.23 87.78 648.08 87.01zM1100.17 249.93l-3.38-17.25c-.06-.28-.27-.51-.56-.57l-17.17-3.73c-.77-.17-.76-1.26.01-1.41l17.25-3.38c.28-.06.51-.27.57-.56l3.73-17.17c.17-.77 1.26-.76 1.41.01l3.38 17.25c.06.28.27.51.56.57l17.17 3.73c.77.17.76 1.26-.01 1.41l-17.25 3.38c-.28.06-.51.27-.57.56l-3.73 17.17C1101.41 250.71 1100.32 250.7 1100.17 249.93z" class="colorf9d18a svgShape"></path>
  </g>
</svg>
