<?xml version="1.0" encoding="UTF-8" standalone="no"?><!DOCTYPE svg PUBLIC "-//W3C//DTD SVG 1.1//EN" "http://www.w3.org/Graphics/SVG/1.1/DTD/svg11.dtd"><svg width="100%" height="100%" viewBox="0 0 16667 16667" version="1.1" xmlns="http://www.w3.org/2000/svg" xmlns:xlink="http://www.w3.org/1999/xlink" xml:space="preserve" xmlns:serif="http://www.serif.com/" style="fill-rule:evenodd;clip-rule:evenodd;stroke-linejoin:round;stroke-miterlimit:2;"><g><path d="M2947.95,3147.9c-29.354,-53.116 -98.054,-149.171 -100.952,-209.035c-1.454,-29.819 6.744,-35.257 24.795,-57.058c30.584,62.758 69.934,153.04 118.813,201.187l14.196,-2.822c4.152,18.276 5.142,21.916 -0.148,40.713l-15.358,46.282c-17,-3.549 -27.035,-9.605 -41.346,-19.267Z" style="fill:#4d4f59;fill-rule:nonzero;"/><path d="M4749.84,2643.3c38.457,37.891 80.787,75.334 115.369,116.645c-49.075,35.205 -102.597,61.377 -152.39,94.802c-17.984,-40.375 -36.543,-83.198 -28.698,-128.47c7.366,-42.546 30.946,-60.836 65.719,-82.977Z" style="fill:#a51e22;fill-rule:nonzero;"/><path d="M2871.79,2881.81c25.318,-12.709 58.517,-34.305 87.704,-27.13c43.756,10.762 70.024,44.353 88.731,82.599c11.676,23.863 31.612,58.445 33.855,84.303c-25.542,17.171 -58.708,34.079 -77.281,58.593l-14.196,2.822c-48.879,-48.147 -88.229,-138.429 -118.813,-201.187Z" style="fill:#0b0d10;fill-rule:nonzero;"/><path d="M12903.3,15962.9c1.435,4.639 3.014,9.279 4.352,13.966c5.406,18.894 6.937,34.63 8.466,54.049c18.368,9.854 31.809,10.954 52.472,12.197c1.53,163.917 -5.932,327.882 -2.822,491.704l-48.023,-5.548c-29.655,-38.17 -14.11,-395.803 -14.732,-468.315l0.287,-98.053Z" style="fill:#32363e;fill-rule:nonzero;"/><path d="M3004.65,3120.89c83.35,152.314 174.134,307.726 235.343,470.5c-20.701,6.095 -37.48,11.064 -59.282,12.389c-78.27,-151.638 -152.815,-305.072 -232.765,-455.874c14.311,9.662 24.346,15.718 41.346,19.267l15.358,-46.282Z" style="fill:#535a63;fill-rule:nonzero;"/><path d="M3004.8,3080.17c18.573,-24.514 51.739,-41.422 77.281,-58.593c52.873,156.183 175.928,365.869 266.395,505.125c-33.668,25.298 -77.539,39.031 -108.481,64.681c-61.209,-162.774 -151.993,-318.186 -235.343,-470.5c5.29,-18.797 4.3,-22.437 0.148,-40.713Z" style="fill:#191d22;fill-rule:nonzero;"/><path d="M12852.7,13868.6c37.261,2.296 75.192,6.17 112.499,5.022c0.096,88.918 3.923,179.462 -2.008,268.094c-66.629,-1.579 -131.105,-20.233 -198.739,-19.802l-34.39,0.669c-9.375,-11.479 -8.323,-8.418 -13.585,-20.472c-36.398,-82.604 -1.434,-154.781 29.513,-232.554c35.49,-2.057 71.172,-1.053 106.71,-0.957Z" style="fill:#c22e2f;fill-rule:nonzero;"/><path d="M13103.7,13858.3c51.8,22.194 103.889,41.661 157.172,60.076c15.976,62.946 36.544,133.975 2.153,194.721c-2.631,4.639 -5.453,9.135 -8.179,13.679l-13.919,-3.444c-70.646,10.475 -142.106,19.659 -213.518,22.768l-16.358,0.239l-47.831,-4.639c5.931,-88.632 2.104,-179.176 2.008,-268.094c46.923,-8.562 90.641,-14.253 138.472,-15.306Z" style="fill:#a51e22;fill-rule:nonzero;"/><path d="M12842,7854.91c-9.566,-4.784 -19.132,-7.223 -25.016,-16.837c-25.159,-40.896 -14.54,-519.207 -5.931,-578.469c24.251,-15.21 41.565,-12.437 69.882,-13.728l76.912,2.296c3.97,200.317 -2.104,401.447 -0.095,601.907c-38.696,-0 -77.152,2.487 -115.752,4.831Z" style="fill:#c22e2f;fill-rule:nonzero;"/><path d="M12845.4,10761.1c-15.927,-4.639 -27.837,-9.614 -42.521,-16.837c-22.96,-51.848 -11.767,-436.075 -8.944,-515.714c20.328,-17.745 29.655,-15.497 55.914,-18.272c33.864,3.349 65.624,3.922 99.584,1.913c30.899,32.478 13.632,316.834 17.267,383.654c-0.669,54.336 -1.817,108.72 -1.244,163.056c-40.8,-1.961 -79.4,-2.057 -120.056,2.2Z" style="fill:#da3e40;fill-rule:nonzero;"/><path d="M3750.03,15019c197.686,234.182 416.178,480.177 656.243,672.362l21.906,7.031c-4.496,44.005 -49.027,82.318 -78.156,113.599c-248.482,-200.603 -460.182,-430.671 -680.775,-660.499c10.518,-44.914 53.901,-94.084 80.782,-132.493Z" style="fill:#0b0d10;fill-rule:nonzero;"/><path d="M4423.44,13718.9l131.153,-1.914c54.48,0.24 110.107,2.679 164.444,-0.191l13.919,1.77c2.2,86 6.361,174.631 0.334,260.488l-34.103,7.557c-55.198,-9.901 -121.444,-3.013 -177.837,-2.391l-176.018,2.391c-49.027,-3.348 -95.566,-1.865 -144.497,1.339l2.486,-267.088l220.119,-1.961Z" style="fill:#da3e40;fill-rule:nonzero;"/><path d="M7093.23,3665.85c132.731,-13.866 940.789,-28.646 1014.07,26.752c49.218,37.222 75.716,115.224 82.652,174.248c8.705,74.33 -0.574,153.107 -48.979,212.657c-21.763,26.69 -49.553,45.392 -77.487,64.955c-90.974,0.048 -184.293,-13.297 -274.359,-8.418c9.997,-4.114 19.755,-10.093 29.273,-15.162c30.516,-104.656 10.14,-335.536 9.232,-454.42c-242.743,5.85 -491.896,8.633 -734.399,-0.612Z" style="fill:#c7c6c8;fill-rule:nonzero;"/><path d="M4437.12,9560.95c41.852,0.431 83.991,2.057 125.796,1.053l58.88,0.908c-65.051,186.493 -76.53,343.666 -24.49,535.23c16.598,61.128 43.957,122.639 47.353,186.111l-46.731,0.574l-173.77,0.43c-28.269,-1.865 -43.862,0.67 -67.49,-15.64c-17.458,-105.085 -7.988,-590.475 3.683,-698.478c22.816,-12.388 51.371,-9.518 76.769,-10.188Z" style="fill:#da3e40;fill-rule:nonzero;"/><path d="M12967.8,10208.3l119.578,0.717c22.959,10.141 42.713,13.441 51.514,40.178c9.327,28.221 0.096,73.278 -2.727,102.311c14.541,-1.722 41.519,-0.048 50.462,-11.91c21.476,-28.555 16.693,-87.722 57.829,-96.57c25.972,-5.549 51.226,2.822 76.577,8.322l11.096,2.344c0.335,78.299 19.803,389.392 -26.689,443.729c-20.567,11.814 -36.352,23.294 -61.128,21.428c-29.034,-25.685 -26.834,-112.594 -73.373,-105.324c-10.188,1.578 -26.881,10.332 -35.778,14.014c1.435,42.188 9.089,91.023 -8.37,130.245c-10.619,5.165 -18.224,9.183 -29.991,11.096c-39.125,-12.723 -89.922,-8.561 -131.344,-10.044c-0.573,-54.336 0.575,-108.72 1.244,-163.056c-3.635,-66.82 13.632,-351.176 -17.267,-383.654l18.367,-3.826Z" style="fill:#191d22;fill-rule:nonzero;"/><path d="M12967.8,10208.3l119.578,0.717c22.959,10.141 42.713,13.441 51.514,40.178c9.327,28.221 0.096,73.278 -2.727,102.311c-2.535,2.392 -5.213,4.64 -7.604,7.175c-13.249,14.206 -19.803,29.608 -28.269,46.875c-15.21,-25.399 -23.58,-51.993 -51.035,-64.238c-23.055,8.706 -24.968,9.376 -38.982,29.512c1.673,11.862 -0.24,20.376 9.756,28.699c20.042,16.645 53.81,19.754 78.874,25.159c14.876,19.228 12.771,23.916 13.393,48.692c-13.393,11.336 -8.371,12.053 -23.246,10.236c-16.884,-2.057 -25.925,-8.993 -40.656,-15.976c-13.106,-6.17 -24.059,-4.448 -37.883,-2.869l-21.906,-11.815c-28.125,34.725 -11.049,98.819 -21.907,142.824c-3.635,-66.82 13.632,-351.176 -17.267,-383.654l18.367,-3.826Z" style="fill:#a51e22;fill-rule:nonzero;"/><path d="M12966.7,10595.8c10.858,-44.005 -6.218,-108.099 21.907,-142.824l21.906,11.815c6.458,25.35 11.289,40.704 27.025,62.276l16.454,5.405c28.603,9.613 57.541,18.127 70.024,47.878c5.884,13.967 8.084,32.286 11.145,47.209c1.435,42.188 9.089,91.023 -8.37,130.245c-10.619,5.165 -18.224,9.183 -29.991,11.096c-39.125,-12.723 -89.922,-8.561 -131.344,-10.044c-0.573,-54.336 0.575,-108.72 1.244,-163.056Z" style="fill:#7d1318;fill-rule:nonzero;"/><path d="M4415.83,6182.59c61.702,7.989 125.031,1.771 186.924,-1.052c7.079,58.497 6.84,127.183 22.672,183.289c-47.831,49.458 -89.492,106.329 -89.684,178.698c-0.143,34.725 14.876,71.555 41.948,93.939c9.95,8.227 23.007,15.115 34.774,20.089l1.387,308.225l-58.354,0.956c-39.7,0.43 -84.231,-3.253 -123.118,4.352c-19.993,-1.052 -31.902,-2.152 -49.505,-12.149c-13.057,-30.276 -17.793,-721.579 -4.448,-754.2c5.453,-13.393 24.872,-16.693 37.404,-22.147Z" style="fill:#da3e40;fill-rule:nonzero;"/><path d="M5433.3,15032c33.912,36.495 67.585,76.53 88.536,122.16c-241.212,199.408 -460.471,426.463 -713.497,611.186l-0.813,150.955l-1.818,442.007l-179.749,-0.43c-3.826,-153.251 19.037,-323.817 -5.788,-473.863l-8.992,-18.797c12.676,-80.165 217.058,-295.549 286.269,-355.481c7.558,-6.601 15.019,-13.297 22.146,-20.328c2.296,-2.296 4.592,-4.64 6.888,-6.984c170.422,-148.563 339.744,-298.083 506.818,-450.425Z" style="fill:#0b0d10;fill-rule:nonzero;"/><path d="M12957.8,7850.08l5.213,0.86c12.341,785.005 5.74,1572.26 4.831,2357.4l-18.367,3.826c-33.96,2.009 -65.72,1.436 -99.584,-1.913c5.5,-154.446 -0.479,-310.663 -1.244,-465.3l-3.3,-899.703l1.339,-609.655c0.43,-126.275 5.884,-254.892 -4.64,-380.688c38.6,-2.344 77.056,-4.831 115.752,-4.831Z" style="fill:#535a63;fill-rule:nonzero;"/><path d="M12963,7850.94c39.94,-5.213 87.1,-13.775 123.452,6.889c-20.136,781.942 -2.87,1568.81 0.957,2351.23l-119.578,-0.717c0.909,-785.147 7.51,-1572.4 -4.831,-2357.4Z" style="fill:#191d22;fill-rule:nonzero;"/><path d="M5268.42,14829.4c21.716,20.089 53.715,43.144 61.941,71.89l-1.004,6.505c30.325,43.144 66.342,87.053 103.937,124.122c-167.074,152.342 -336.396,301.862 -506.818,450.425c-2.296,2.344 -4.592,4.688 -6.888,6.984c-7.127,7.031 -14.588,13.727 -22.146,20.328c-69.211,59.932 -273.593,275.316 -286.269,355.481l8.992,18.797c-99.105,76.147 -424.309,519.207 -529.92,650.407c-34.008,42.235 -75.813,109.677 -120.869,138.28c-20.854,-4.113 -38.935,-9.566 -58.689,-17.41c40.417,-137.802 498.83,-692.021 608.937,-836.279l748.796,-989.53Z" style="fill:#32363e;fill-rule:nonzero;"/><path d="M5329.36,14907.8c30.325,43.144 66.342,87.053 103.937,124.122c-167.074,152.342 -336.396,301.862 -506.818,450.425c5.787,-88.535 329.604,-490.747 402.881,-574.547Z" style="fill:#fff;fill-rule:nonzero;"/><path d="M4432.38,6971.08c38.887,-7.605 83.418,-3.922 123.118,-4.352c21.667,864.452 2.583,1730.62 7.414,2595.27c-41.805,1.004 -83.944,-0.622 -125.796,-1.053c-23.724,-862.06 6.457,-1727.37 -4.736,-2589.86Z" style="fill:url(#_Linear1);"/><path d="M4200.83,13988c48.931,-3.204 95.47,-4.687 144.497,-1.339c-138.806,160.282 -247.334,349.263 -368.299,523.272c-218.062,313.581 -438.746,627.401 -651.254,944.712c-100.522,150.142 -193.96,304.828 -295.319,454.3c-109.323,161.239 -220.774,321.377 -333.55,480.224c-52.686,74.234 -125.834,153.873 -163.166,235.377l-100.838,-44.196c98.259,-147.128 205.674,-287.704 299.093,-438.133c272.173,-376.574 525.955,-768.55 786.673,-1153.3c226.428,-334.1 461.996,-662.652 682.163,-1000.91Z" style="fill:#535a63;fill-rule:nonzero;"/><path d="M12845.4,10761.1c40.656,-4.257 79.256,-4.161 120.056,-2.2l-1.195,2154.7c0.143,319.608 -5.644,640.554 0.908,960.018c-37.307,1.148 -75.238,-2.726 -112.499,-5.022l-0.812,-2122.89l-0,-628.883c-0.096,-117.377 5.787,-239.06 -6.458,-355.72Z" style="fill:#535a63;fill-rule:nonzero;"/><path d="M12764.5,14121.9c67.634,-0.431 132.11,18.223 198.739,19.802l47.831,4.639l-11.862,6.075c-61.272,-5.357 -106.185,-9.71 -163.487,17.793l-4.114,5.931c-67.584,117.76 -149.663,227.724 -227.054,339.17c-136.175,196.299 -273.593,392.598 -402.642,593.68c-22.719,30.181 -44.626,58.832 -60.984,93.175l-388.963,553.023c-61.845,86.861 -130.053,171.762 -188.168,260.919c-67.537,85.904 -134.548,177.501 -193.668,269.337l-42.044,-42.618l-59.741,-79.304c44.771,-49.074 80.835,-103.124 117.952,-157.986c221.267,-328.265 466.449,-642.276 693.12,-967.527l356.725,-517.533c93.319,-135.649 185.01,-274.072 293.97,-397.907l34.39,-0.669Z" style="fill:#535a63;fill-rule:nonzero;"/><path d="M12764.5,14121.9c67.634,-0.431 132.11,18.223 198.739,19.802l47.831,4.639l-11.862,6.075c-61.272,-5.357 -106.185,-9.71 -163.487,17.793l-4.114,5.931c-67.584,117.76 -149.663,227.724 -227.054,339.17c-136.175,196.299 -273.593,392.598 -402.642,593.68c-22.719,30.181 -44.626,58.832 -60.984,93.175l-388.963,553.023c-61.845,86.861 -130.053,171.762 -188.168,260.919c-67.537,85.904 -134.548,177.501 -193.668,269.337l-42.044,-42.618c111.207,-206.869 286.509,-418.905 424.359,-612.573c254.605,-357.585 506.387,-716.988 753.196,-1080.03c71.028,-104.511 237.098,-310.424 258.861,-428.327Z" style="fill:#32363e;fill-rule:nonzero;"/><path d="M7068.26,3658.82l24.968,7.027c242.503,9.245 491.656,6.462 734.399,0.612c0.908,118.884 21.284,349.764 -9.232,454.42c-9.518,5.069 -19.276,11.048 -29.273,15.162c0.766,72.99 8.084,154.111 -7.509,225.427c-11.671,28.556 -12.723,37.739 -38.504,56.011c-28.412,3.73 -53.714,3.874 -82.27,2.009c9.854,-48.548 10.045,-112.595 5.405,-161.526c-3.492,-36.495 -17.075,-77.917 -47.592,-100.78c-55.006,-41.23 -153.92,-21.811 -218.349,-13.775c-42.474,0.191 -114.125,10.187 -150.716,-12.341c-59.262,-11.958 -125.843,-4.783 -185.919,-2.631c-11.575,-126.657 -16.884,-346.297 4.592,-469.615Z" style="fill:#32363e;fill-rule:nonzero;"/><path d="M7249.59,4131.06c40.896,-31.759 455.305,-19.276 533.748,-14.732c-0.957,81.313 -5.262,163.965 -1.722,245.134c-11.671,28.556 -12.723,37.739 -38.504,56.011c-28.412,3.73 -53.714,3.874 -82.27,2.009c9.854,-48.548 10.045,-112.595 5.405,-161.526c-3.492,-36.495 -17.075,-77.917 -47.592,-100.78c-55.006,-41.23 -153.92,-21.811 -218.349,-13.775c-42.474,0.191 -114.125,10.187 -150.716,-12.341Z" style="fill:#0b0d10;fill-rule:nonzero;"/><path d="M12965.5,10758.9c41.422,1.483 92.219,-2.679 131.344,10.044c-16.836,243.269 -6.312,493.043 -5.835,737.03l4.879,1365.87l-0.765,641.415c-0.191,107.524 -15.976,241.977 8.562,345.053c-47.831,1.053 -91.549,6.744 -138.472,15.306c-6.552,-319.464 -0.765,-640.41 -0.908,-960.018l1.195,-2154.7Z" style="fill:#191d22;fill-rule:nonzero;"/><path d="M4424.16,10285.3l173.77,-0.43l-28.747,9.997c-5.261,12.197 -8.179,22.528 -8.657,35.873c-3.922,105.037 4.209,210.313 5.023,315.351l0.43,624.722l-6.936,1533.46c-1.578,303.872 3.923,609.034 -4.448,912.761l-131.153,1.914l0.718,-3433.65Z" style="fill:#535a63;fill-rule:nonzero;"/><path d="M13254.8,14126.8c45.056,117.33 177.835,260.776 251.831,365.813l737.22,1035.64c170.279,237.003 328.026,494.764 512.51,719.81c47.497,66.389 93.893,133.401 147.703,194.864l-71.316,54.431l-71.7,50.414c-86.334,-114.507 -161.476,-237.003 -248.099,-351.271c-222.51,-328.648 -478.598,-636.297 -696.23,-967.671c-12.627,-31.186 -35.059,-59.072 -54.239,-86.622c-77.392,-102.694 -635.437,-904.199 -664.567,-914.483c4.64,-24.872 7.845,-43.383 4.688,-68.781c-26.02,-16.406 -44.865,-12.34 -75.238,-12.819c71.412,-3.109 142.872,-12.293 213.518,-22.768l13.919,3.444Z" style="fill:#32363e;fill-rule:nonzero;"/><path d="M13254.8,14126.8c45.056,117.33 177.835,260.776 251.831,365.813l737.22,1035.64c170.279,237.003 328.026,494.764 512.51,719.81c47.497,66.389 93.893,133.401 147.703,194.864l-71.316,54.431c-47.736,-53.81 -88.105,-118.382 -130.627,-176.64c-98.58,-135.123 -194.911,-271.68 -291.388,-408.334l-814.514,-1137.57c-145.025,-204.621 -275.747,-424.309 -436.221,-617.165c29.513,-8.992 53.906,-19.228 80.883,-34.295l13.919,3.444Z" style="fill:#535a63;fill-rule:nonzero;"/><path d="M4644.66,10284.2c14.493,-0.67 30.182,-0.143 44.387,-2.583l39.605,16.597c25.781,1137.66 2.774,2278.48 6.074,3416.58l-1.769,3.731l-13.919,-1.77c-54.337,2.87 -109.964,0.431 -164.444,0.191c8.371,-303.727 2.87,-608.889 4.448,-912.761l6.936,-1533.46l-0.43,-624.722c-0.814,-105.038 -8.945,-210.314 -5.023,-315.351c0.478,-13.345 3.396,-23.676 8.657,-35.873l28.747,-9.997l46.731,-0.574Z" style="fill:#191d22;fill-rule:nonzero;"/><path d="M4644.66,10284.2c14.493,-0.67 30.182,-0.143 44.387,-2.583c-13.727,2.966 -40.704,3.827 -47.639,16.454c-18.033,32.429 -10.14,708.187 -11.719,799.066c-11.384,664.853 3.635,1329.13 3.97,1994.03c0,83.274 -11.767,563.02 -2.727,589.327c5.31,15.593 11.862,19.132 23.342,30.038l64.764,6.218c-54.337,2.87 -109.964,0.431 -164.444,0.191c8.371,-303.727 2.87,-608.889 4.448,-912.761l6.936,-1533.46l-0.43,-624.722c-0.814,-105.038 -8.945,-210.314 -5.023,-315.351c0.478,-13.345 3.396,-23.676 8.657,-35.873l28.747,-9.997l46.731,-0.574Z" style="fill:#32363e;fill-rule:nonzero;"/><path d="M4733.29,13979.1c59.98,4.544 119.386,5.453 179.51,5.501c111.686,167.552 268.715,420.291 400.634,565.315c47.496,63.759 92.17,128.666 135.84,195.151c304.349,349.024 592.245,807.772 873.539,1186.64c157.269,213.948 329.844,424.979 474.867,646.676l-92.361,60.937l-20.759,11.719l-73.947,40.321c-177.979,-258.909 -357.968,-516.815 -540.826,-772.281c-185.25,-253.026 -365.908,-509.592 -547.953,-764.915c-20.951,-45.63 -54.624,-85.665 -88.536,-122.16c-37.595,-37.069 -73.612,-80.978 -103.937,-124.122l1.004,-6.505c-8.226,-28.746 -40.225,-51.801 -61.941,-71.89c-15.784,-11.623 -8.752,-4.592 -21.571,-23.485c-19.898,-29.368 -39.748,-59.646 -66.725,-83.035c-11.049,-38.36 -374.422,-550.919 -418.522,-590.905l-17.315,6.026c-1.195,-53.427 -5.74,-105.85 -11.001,-158.99Z" style="fill:url(#_Linear2);"/><path d="M6684.56,16651c-61.941,-110.155 -149.377,-210.17 -223.037,-313.342c-120.343,-168.604 -235.52,-341.036 -357.394,-508.444c-53.188,-72.991 -120.869,-147.607 -166.165,-225.189c-16.215,-27.79 -30.899,-58.593 -33.242,-90.975c43.191,29.608 85.091,115.464 117.568,159.756l473.624,652.799c67.107,93.749 170.326,206.295 209.405,313.676l-20.759,11.719Z" style="fill:#535a63;fill-rule:nonzero;"/><path d="M14627,3722.85c1.673,-80.136 15.258,-167.806 30.564,-246.331c32.669,-167.561 103.459,-393.114 252.117,-492.473l-1.004,642.204c162.386,54.877 294.4,198.839 368.634,350.654c115.608,236.238 109.246,531.978 114.029,789.309c15.784,845.415 -59.931,1741.77 -341.322,2543.85c-166.836,475.68 -433.636,1026.55 -912.618,1253.65c-141.101,66.916 -298.753,100.589 -449.804,44.483c-240.255,-89.205 -423.305,-334.578 -525.615,-560.15c-25.686,-56.583 -48.835,-116.133 -65.576,-176.018l6.552,-20.042l47.114,13.633c75.286,244.847 252.501,527.242 482.28,653.516c113.839,62.563 231.121,78.682 355.96,40.274c360.407,-110.777 628.452,-468.315 794.426,-787.682c428.95,-825.374 537.862,-1955.24 534.944,-2872.88c-0.765,-254.032 5.883,-538.483 -72.034,-782.086c-57.78,-180.563 -167.743,-317.36 -335.822,-405.312c-3.588,239.338 -0.957,479.162 -1.483,718.605c-59.071,-18.032 -117.616,-37.165 -176.066,-57.062c-2.918,-2.583 -6.122,-4.927 -8.705,-7.797c-107.62,-118.907 -96.333,-490.603 -96.571,-642.347Z" style="fill:url(#_Linear3);"/><path d="M7249.59,4131.06c36.591,22.528 108.242,12.532 150.716,12.341c64.429,-8.036 163.343,-27.455 218.349,13.775c30.517,22.863 44.1,64.285 47.592,100.78c4.64,48.931 4.449,112.978 -5.405,161.526c-35.012,58.497 -6.361,1061.42 -14.588,1245.47l1.387,4167.33c0.143,650.598 -12.388,1304.02 2.057,1954.33l-83.896,-0.144l-47.592,1.531l-17.411,-3.492l-2.248,-4850.94l-0.239,-1506.44c-1.865,-331.182 -14.78,-665.665 -1.052,-996.37c-29.512,-9.47 -64.764,-6.36 -95.902,-8.465c-37.069,-2.535 -121.873,-7.27 -145.549,-39.031c-39.605,-53.092 -14.302,-189.841 -6.219,-252.213Z" style="fill:#191d22;fill-rule:nonzero;"/><path d="M7400.3,4143.4c64.429,-8.036 163.343,-27.455 218.349,13.775c30.517,22.863 44.1,64.285 47.592,100.78c4.64,48.931 4.449,112.978 -5.405,161.526c-35.012,58.497 -6.361,1061.42 -14.588,1245.47c-30.325,-45.296 -1.052,-1088.97 -11.145,-1234.52c-15.258,-18.08 -32.621,-14.158 -55.388,-16.693c22.385,-77.343 3.395,-188.789 -8.371,-267.806c-57.11,0.908 -114.125,2.869 -171.044,-2.535Z" style="fill:#282b32;fill-rule:nonzero;"/><path d="M7249.59,4131.06c36.591,22.528 108.242,12.532 150.716,12.341c56.919,5.404 113.934,3.443 171.044,2.535c11.766,79.017 30.756,190.463 8.371,267.806c-3.683,44.674 -6.936,89.205 -13.824,133.496c-4.495,-39.077 6.314,-78.634 -5.931,-116.181c-24.059,-14.541 -36.255,-5.692 -62.706,-0.288c-29.512,-9.47 -64.764,-6.36 -95.902,-8.465c-37.069,-2.535 -121.873,-7.27 -145.549,-39.031c-39.605,-53.092 -14.302,-189.841 -6.219,-252.213Z" style="fill:#32363e;fill-rule:nonzero;"/><path d="M7497.26,4430.77c26.451,-5.404 38.647,-14.253 62.706,0.288c12.245,37.547 1.436,77.104 5.931,116.181l2.105,4579.25c0.861,886.119 11.48,1774.1 -2.2,2659.98l-47.592,1.531l-17.411,-3.492l-2.248,-4850.94l-0.239,-1506.44c-1.865,-331.182 -14.78,-665.665 -1.052,-996.37Z" style="fill:#535a63;fill-rule:nonzero;"/><path d="M2572.55,3622.96c91.592,150.993 147.157,324.525 212.906,488.011c126.79,315.255 249.974,643.664 404.66,945.812c-392.535,213.375 -938.221,107.668 -1303.58,-117.09c-67.561,-41.517 -151.213,-137.419 -226.36,-155.834c-4.798,-1.196 -9.677,-2.057 -14.517,-3.061c-4.578,-11.145 -8.93,-22.051 -12.723,-33.53c-66.141,-199.407 -129.799,-504.761 55.25,-662.031c77.295,-65.719 190.09,-106.71 281.753,-150.237l439.506,-213.427c44.952,-21.935 140.389,-54.762 163.109,-98.613Z" style="fill:#da3e40;fill-rule:nonzero;"/><path d="M13027.4,14146.1c30.373,0.479 49.218,-3.587 75.238,12.819c3.157,25.398 -0.048,43.909 -4.688,68.781c29.13,10.284 587.175,811.789 664.567,914.483c19.18,27.55 41.612,55.436 54.239,86.622c-82.556,79.782 -664.565,619.173 -674.705,665.091c-3.301,15.115 -7.365,29.129 -12.196,43.814c-19.612,7.461 -36.783,10.57 -57.589,13.057c-4.114,4.688 -12.485,12.245 -14.828,17.889c-0.43,3.109 -0.957,6.266 -1.388,9.423c-23.867,178.697 16.645,368.395 -12.435,545.227c-26.403,12.101 -49.601,11.288 -77.869,11.527c-3.11,-163.822 4.352,-327.787 2.822,-491.704c-20.663,-1.243 -34.104,-2.343 -52.472,-12.197c-1.529,-19.419 -3.06,-35.155 -8.466,-54.049c-1.338,-4.687 -2.917,-9.327 -4.352,-13.966l-5.835,-10.284c-27.455,1.865 -54.958,2.918 -76.913,-16.311c-25.637,-22.385 -22.576,-73.42 -23.245,-104.176c-100.398,-90.831 -193.047,-190.511 -289.474,-285.504c-119.482,-117.808 -243.126,-231.263 -366.912,-344.479c16.358,-34.343 38.265,-62.994 60.984,-93.175c129.049,-201.082 266.467,-397.381 402.642,-593.68c77.391,-111.446 159.47,-221.41 227.054,-339.17l4.114,-5.931c57.302,-27.503 102.215,-23.15 163.487,-17.793l11.862,-6.075l16.358,-0.239Z" style="fill:#0b0d10;fill-rule:nonzero;"/><path d="M12897.4,15952.6c29.082,0.717 39.748,-3.157 63.041,15.258c4.831,25.351 6.793,49.601 8.084,75.238c-20.663,-1.243 -34.104,-2.343 -52.472,-12.197c-1.529,-19.419 -3.06,-35.155 -8.466,-54.049c-1.338,-4.687 -2.917,-9.327 -4.352,-13.966l-5.835,-10.284Z" style="fill:#282b32;fill-rule:nonzero;"/><path d="M12831.6,14176.1l4.114,-5.931c57.302,-27.503 102.215,-23.15 163.487,-17.793c-2.392,3.157 -4.592,6.409 -7.127,9.423c-12.866,15.258 -26.451,23.437 -42.952,34.294c-4.544,16.072 -3.3,19.324 -1.148,35.539c23.915,177.74 10.379,369.973 9.566,549.388l-3.875,934.572c-37.117,4.926 -74.425,11.049 -111.734,13.871c14.302,-230.546 -4.639,-470.371 -5.5,-701.921c-1.1,-280.961 15.162,-571.678 -4.831,-851.442Z" style="fill:#535a63;fill-rule:nonzero;"/><path d="M12831.6,14176.1c19.993,279.764 3.731,570.481 4.831,851.442c0.861,231.55 19.802,471.375 5.5,701.921c-83.321,-73.229 -160.472,-156.791 -239.681,-234.564l-400.346,-385.949c129.049,-201.082 266.467,-397.381 402.642,-593.68c77.391,-111.446 159.47,-221.41 227.054,-339.17Z" style="fill:#fff;fill-rule:nonzero;"/><path d="M13097.9,14227.7c29.13,10.284 587.175,811.789 664.567,914.483c-228.729,194.529 -430.863,425.744 -664.614,612.429l0.047,-1526.91Z" style="fill:#fff;fill-rule:nonzero;"/><path d="M4521.35,13984.2c56.393,-0.622 122.639,-7.51 177.837,2.391l34.103,-7.557c5.261,53.14 9.806,105.563 11.001,158.99l17.315,-6.026c44.1,39.986 407.473,552.545 418.522,590.905c26.977,23.389 46.827,53.667 66.725,83.035c12.819,18.893 5.787,11.862 21.571,23.485l-748.796,989.53c-110.107,144.258 -568.52,698.477 -608.937,836.279l-160.521,-57.111l492.995,-649.833l106.854,-136.271c29.129,-31.281 73.66,-69.594 78.156,-113.599l-21.906,-7.031c-240.065,-192.185 -458.557,-438.18 -656.243,-672.362c-26.881,38.409 -70.264,87.579 -80.782,132.493c-87.363,84.9 -170.47,236.381 -240.743,339.218c-125.146,183.097 -259.446,364.521 -374.594,553.693c-66.199,83.178 -122.419,177.357 -181.328,265.893c-78.304,117.664 -159.598,234.372 -233.736,354.667l-105.099,-40.513c37.332,-81.504 110.48,-161.143 163.166,-235.377c112.776,-158.847 224.227,-318.985 333.55,-480.224c101.359,-149.472 194.797,-304.158 295.319,-454.3c212.508,-317.311 433.192,-631.131 651.254,-944.712c120.965,-174.009 229.493,-362.99 368.299,-523.272l176.018,-2.391Z" style="fill:#4d4f59;fill-rule:nonzero;"/><path d="M4521.35,13984.2c56.393,-0.622 122.639,-7.51 177.837,2.391c-32.286,5.74 -54.624,4.544 -76.004,31.234c2.87,309.515 1.339,619.221 -4.209,928.689c-2.631,144.162 -27.407,366.816 -2.966,502.322l-7.222,8.562l10.044,11.192c-28.22,41.565 -61.319,80.643 -92.17,120.295c4.878,-522.22 24.633,-1087.68 -5.31,-1604.68Z" style="fill:#191d22;fill-rule:nonzero;"/><path d="M4699.19,13986.6l34.103,-7.557c5.261,53.14 9.806,105.563 11.001,158.99c-0.047,378.775 12.627,763.576 -1.243,1141.78c-11.002,66.102 -82.509,138.279 -124.218,188.789l-10.044,-11.192l7.222,-8.562c-24.441,-135.506 0.335,-358.16 2.966,-502.322c5.548,-309.468 7.079,-619.174 4.209,-928.689c21.38,-26.69 43.718,-25.494 76.004,-31.234Z" style="fill:#0b0d10;fill-rule:nonzero;"/><path d="M4744.29,14138l17.315,-6.026c44.1,39.986 407.473,552.545 418.522,590.905c-88.009,112.116 -350.314,495.243 -437.08,556.898c13.87,-378.201 1.196,-763.002 1.243,-1141.78Z" style="fill:#fff;fill-rule:nonzero;"/><path d="M3750.03,15019c90.922,-143.732 195.199,-280.242 289.187,-422.444c124.265,-188.024 241.691,-384.61 374.709,-566.511l-2.248,1107.91c-0.861,182.524 7.079,371.504 -5.405,553.406c-240.065,-192.185 -458.557,-438.18 -656.243,-672.362Z" style="fill:#fff;fill-rule:nonzero;"/><path d="M1645.65,4780.8c4.84,1.004 9.719,1.865 14.517,3.061c75.147,18.415 158.799,114.317 226.36,155.834c365.363,224.758 911.049,330.465 1303.58,117.09c55.059,78.682 93.51,179.223 134.86,266.132c104.669,220.023 292.047,650.265 437.822,825.517c-0.191,-50.939 -5.453,-109.82 6.601,-159.23c3.444,68.064 3.109,136.798 4.544,204.957c-110.112,79.83 -262.11,130.148 -384.639,190.702c-204.067,100.876 -413.758,236.191 -628.419,308.273c-41.776,-10.381 -84.226,-20.234 -123.089,-39.271c-320.578,-157.124 -869.684,-1509.84 -992.141,-1873.07Z" style="fill:#a51e22;fill-rule:nonzero;"/><path d="M13814,2817.22c49.552,19.281 957.674,-0.525 1095.9,0.842l-0.239,165.989c-148.658,99.359 -219.448,324.912 -252.117,492.473c-15.306,78.525 -28.891,166.195 -30.564,246.331c0.238,151.744 -11.049,523.44 96.571,642.347c2.583,2.87 5.787,5.214 8.705,7.797c58.45,19.897 116.995,39.03 176.066,57.062c-2.488,137.18 -3.826,274.264 -3.205,411.539l-5.356,16.024c-116.23,8.896 -237.099,1.913 -353.808,1.29l-633.187,-3.539c-166.309,-9.423 -335.488,-1.004 -502.227,-1.244c-25.207,-122.686 -4.114,-245.229 -22.528,-367.772c-4.879,-41.996 1.004,-92.171 0.956,-135.171l-2.679,-308.463l6.745,-86.813c6.6,-175.875 2.2,-353.573 2.965,-529.667c22.624,-191.062 11.337,-398.176 2.727,-590.155c112.068,-7.606 319.464,23.002 415.27,-18.87Z" style="fill:#535a63;fill-rule:nonzero;"/><path d="M14627,3722.85c0.238,151.744 -11.049,523.44 96.571,642.347c2.583,2.87 5.787,5.214 8.705,7.797c58.45,19.897 116.995,39.03 176.066,57.062c-2.488,137.18 -3.826,274.264 -3.205,411.539l-5.356,16.024c-116.23,8.896 -237.099,1.913 -353.808,1.29l-633.187,-3.539c-166.309,-9.423 -335.488,-1.004 -502.227,-1.244c-25.207,-122.686 -4.114,-245.229 -22.528,-367.772c-4.879,-41.996 1.004,-92.171 0.956,-135.171l-2.679,-308.463l6.745,-86.813l1226.39,0.286c-2.152,-76.386 -6.887,-158.129 7.558,-233.343Z" style="fill:#282b32;fill-rule:nonzero;"/><path d="M14732.2,4372.99c58.45,19.897 116.995,39.03 176.066,57.062c-2.488,137.18 -3.826,274.264 -3.205,411.539c-19.18,-109.724 -194.194,-374.995 -172.861,-468.601Z" style="fill:#535a63;fill-rule:nonzero;"/><path d="M5577.17,2251.07c49.458,-23.562 98.149,-55.514 154.495,-37.146c25.733,8.37 44.052,22.437 61.319,42.785c118.191,139.384 334.865,593.368 420.435,777.518c90.545,194.912 172.288,394.885 267.663,587.385c109.581,-0.598 488.021,-22.528 568.951,10.691l18.224,26.512c-21.476,123.318 -16.167,342.958 -4.592,469.615c-0.43,29.465 4.353,44.531 -13.966,68.303c-83.322,26.69 -191.756,4.687 -281.008,9.041l-16.454,8.991c20.28,112.356 156.264,265.894 74.473,378.058c-43.67,59.836 -841.493,449.899 -939.02,487.35c-74.234,-24.297 -127.853,-39.699 -182.093,-99.201l-19.228,-19.802l-26.881,0.861c-21.238,12.34 -42.331,25.015 -63.903,36.829c-41.756,-157.124 -192.281,-420.004 -266.419,-576.986c-226.193,-508.54 -458.509,-1018.85 -704.887,-1517.86l54.049,-28.082l34.486,-21.189c49.793,-33.425 103.315,-59.597 152.39,-94.802c-34.582,-41.311 -76.912,-78.754 -115.369,-116.645c98.963,-28.23 201.657,-89.099 293.923,-134.559c177.166,-87.292 353.328,-176.53 533.412,-257.67Z" style="fill:#da3e40;fill-rule:nonzero;"/><path d="M4865.21,2759.95c119.865,152.462 201.608,388.776 282.969,567.32c147.463,323.759 295.596,647.246 437.702,973.406c-65.145,9.853 -137.849,62.276 -195.916,94.466c85.857,187.642 166.357,388.484 269.529,566.895c-21.238,12.34 -42.331,25.015 -63.903,36.829c-41.756,-157.124 -192.281,-420.004 -266.419,-576.986c-226.193,-508.54 -458.509,-1018.85 -704.887,-1517.86l54.049,-28.082l34.486,-21.189c49.793,-33.425 103.315,-59.597 152.39,-94.802Z" style="fill:#4d4f59;fill-rule:nonzero;"/><path d="M4678.33,2875.94c71.89,89.87 111.542,222.376 161.334,327.495c187.068,395.07 356.294,800.401 550.297,1191.71c85.857,187.642 166.357,388.484 269.529,566.895c-21.238,12.34 -42.331,25.015 -63.903,36.829c-41.756,-157.124 -192.281,-420.004 -266.419,-576.986c-226.193,-508.54 -458.509,-1018.85 -704.887,-1517.86l54.049,-28.082Z" style="fill:#0b0d10;fill-rule:nonzero;"/><path d="M5577.17,2251.07c49.458,-23.562 98.149,-55.514 154.495,-37.146c25.733,8.37 44.052,22.437 61.319,42.785c118.191,139.384 334.865,593.368 420.435,777.518c90.545,194.912 172.288,394.885 267.663,587.385c109.581,-0.598 488.021,-22.528 568.951,10.691l18.224,26.512c-21.476,123.318 -16.167,342.958 -4.592,469.615c-0.43,29.465 4.353,44.531 -13.966,68.303c-83.322,26.69 -191.756,4.687 -281.008,9.041l-16.454,8.991c20.28,112.356 156.264,265.894 74.473,378.058c-43.67,59.836 -841.493,449.899 -939.02,487.35c-74.234,-24.297 -127.853,-39.699 -182.093,-99.201l-19.228,-19.802l-26.881,0.861c-103.172,-178.411 -183.672,-379.253 -269.529,-566.895c58.067,-32.19 130.771,-84.613 195.916,-94.466c138.519,-55.436 291.1,-154.399 400.777,-254.796c97.815,-89.54 199.982,-209.691 227.437,-342.758c79.639,-385.38 -490.986,-891.959 -611.855,-1245.79c-24.011,-70.384 -28.268,-132.622 -25.064,-206.252Z" style="fill:#a51e22;fill-rule:nonzero;"/><path d="M5585.88,4300.67c85.714,184.15 199.408,370.07 253.362,566.369c-21.62,21.906 -50.079,44.434 -60.602,73.324l17.41,2.058c3.779,-3.779 7.51,-7.558 11.336,-11.241c15.067,-14.541 8.227,-9.71 24.633,-17.889l1.722,-6.648c5.166,21.045 7.414,30.181 -6.505,49.792c-14.301,20.232 -32.716,28.459 -55.723,34.198c-21.811,-5.308 -43.239,-12.579 -65.911,-9.661l-19.228,-19.802l-26.881,0.861c-103.172,-178.411 -183.672,-379.253 -269.529,-566.895c58.067,-32.19 130.771,-84.613 195.916,-94.466Z" style="fill:#282b32;fill-rule:nonzero;"/><path d="M6481.09,3621.62c109.581,-0.598 488.021,-22.528 568.951,10.691l18.224,26.512c-21.476,123.318 -16.167,342.958 -4.592,469.615c-0.43,29.465 4.353,44.531 -13.966,68.303c-83.322,26.69 -191.756,4.687 -281.008,9.041l-24.059,-3.827c-45.392,-47.018 -235.808,-497.415 -263.55,-580.335Z" style="fill:#191d22;fill-rule:nonzero;"/><path d="M7649.69,11786.6l182.236,1.196c-0.478,72.177 1.627,145.454 -2.966,217.44c162.626,213.996 346.011,414.982 519.159,620.704l709.814,857.229l2092.66,2526.63l117.712,153.681l59.741,79.304l42.044,42.618c40.8,60.267 89.635,116.803 132.301,176.257c-80.883,29.225 -162.052,56.967 -243.604,84.231c-131.631,-185.92 -280.194,-380.784 -434.497,-547.905c-76.721,-106.233 -169.179,-204.478 -252.596,-306.024l-608.03,-734.446l-792.8,-960.544c-135.028,-161.574 -267.668,-326.735 -410.157,-481.755c-345.67,17.458 -699.524,1.148 -1046.06,-0.383l-1.243,2430.49l0.239,531.02c-93.51,-1.913 -187.211,-0.478 -280.721,-0.239l1.722,-526.381l-1.148,-2434.6l-1007.37,3.157c-334.962,401.207 -655.143,814.898 -976.855,1226.72c-43.67,-66.485 -88.344,-131.392 -135.84,-195.151c64.141,-76.003 121.49,-160.138 181.853,-239.347l481.42,-636.871c286.891,-373.991 590.618,-736.455 888.415,-1101.84c148.038,-181.615 287.896,-385.04 451.382,-551.923l32.573,-2.822c51.179,-13.68 122.783,-5.548 176.688,-5.883c-3.635,-74.329 -5.405,-148.803 -7.557,-223.18l47.592,-1.531l83.896,0.144Z" style="fill:url(#_Linear4);"/><path d="M7649.69,11786.6l182.236,1.196c-0.478,72.177 1.627,145.454 -2.966,217.44c-159.373,-9.041 -321.281,28.316 -479.889,11.814c51.179,-13.68 122.783,-5.548 176.688,-5.883c-3.635,-74.329 -5.405,-148.803 -7.557,-223.18l47.592,-1.531l83.896,0.144Z" style="fill:#c22e2f;fill-rule:nonzero;"/><path d="M7422.78,12297.9c22.337,108.911 9.471,248.53 9.471,360.598l-0.574,708.427l-853.785,0.095l-7.175,-12.627c88.87,-149.138 265.367,-343.284 378.056,-482.472c154.735,-191.182 302.437,-397.955 474.007,-574.021Z" style="fill:#fff;fill-rule:nonzero;"/><path d="M7715.08,12294.6c59.645,35.443 813.32,937.155 925.436,1071.32c-308.75,3.253 -617.787,0.239 -926.536,0.335l1.1,-1071.66Z" style="fill:#fff;fill-rule:nonzero;"/><path d="M3348.48,3526.7c174.397,-93.945 358.451,-175.239 536.713,-261.823c246.526,-119.745 491.087,-244.293 739.091,-360.861c246.378,499.012 478.694,1009.32 704.887,1517.86c74.138,156.982 224.663,419.862 266.419,576.986l-580.478,294.449c-119.913,60.507 -261.923,117.999 -368.251,199.695c-101.451,23.102 -237.913,123.452 -334.197,173.866c-109.39,58.45 -289.569,137.562 -383.27,207.252c-14.732,4.926 -26.164,8.275 -41.9,8.849c-16.932,0.574 -16.215,-4.066 -27.647,-15.019c-45.965,15.688 -75.004,37.547 -106.041,74.568c16.836,20.616 16.358,19.994 15.593,46.683c-12.054,49.41 -6.792,108.291 -6.601,159.23c-145.775,-175.252 -333.153,-605.494 -437.822,-825.517c-41.35,-86.909 -79.801,-187.45 -134.86,-266.132c-154.686,-302.148 -277.87,-630.557 -404.66,-945.812c-65.749,-163.486 -121.314,-337.018 -212.906,-488.011c24.48,-11.958 40.919,-21.337 69.149,-18.09c63.061,29.708 88.507,105.774 118.961,164.682c51.404,-21.839 102.033,-40.488 155.547,-56.517c22.739,-5.328 43.942,-13.359 65.897,-21.266c67.188,-27.033 132.788,-57.808 198.613,-87.999c21.802,-1.325 38.581,-6.294 59.282,-12.389c30.942,-25.65 74.813,-39.383 108.481,-64.681Z" style="fill:#4d4f59;fill-rule:nonzero;"/><path d="M2572.55,3622.96c24.48,-11.958 40.919,-21.337 69.149,-18.09c63.061,29.708 88.507,105.774 118.961,164.682c51.404,-21.839 102.033,-40.488 155.547,-56.517c22.739,-5.328 43.942,-13.359 65.897,-21.266c55.249,217.116 167.222,428.529 258.833,632.672l417.771,932.181c58.985,131.583 248.54,511.266 270.686,617.499c-14.732,4.926 -26.164,8.275 -41.9,8.849c-16.932,0.574 -16.215,-4.066 -27.647,-15.019c-45.965,15.688 -75.004,37.547 -106.041,74.568c16.836,20.616 16.358,19.994 15.593,46.683c-12.054,49.41 -6.792,108.291 -6.601,159.23c-145.775,-175.252 -333.153,-605.494 -437.822,-825.517c-41.35,-86.909 -79.801,-187.45 -134.86,-266.132c-154.686,-302.148 -277.87,-630.557 -404.66,-945.812c-65.749,-163.486 -121.314,-337.018 -212.906,-488.011Z" style="fill:#4d4f59;fill-rule:nonzero;"/><path d="M2916.2,3713.04c22.739,-5.328 43.942,-13.359 65.897,-21.266c55.249,217.116 167.222,428.529 258.833,632.672l417.771,932.181c58.985,131.583 248.54,511.266 270.686,617.499c-14.732,4.926 -26.164,8.275 -41.9,8.849c-16.932,0.574 -16.215,-4.066 -27.647,-15.019c-19.036,-67.777 -58.114,-136.51 -87.913,-200.556c-55.771,-119.77 -110.887,-238.725 -156.738,-362.703c-81.222,-213.231 -189.363,-421.679 -287.044,-627.927c-94.839,-200.221 -182.954,-403.599 -271.724,-606.594c-46.224,-105.707 -126.154,-243.078 -140.221,-357.136Z" style="fill:#0b0d10;fill-rule:nonzero;"/><path d="M2572.55,3622.96c24.48,-11.958 40.919,-21.337 69.149,-18.09c63.061,29.708 88.507,105.774 118.961,164.682c78.586,198.117 155.231,397.525 240.409,592.915c145.043,332.665 304.119,658.826 455.5,988.573c57.527,-8.945 105.654,-22.002 158.627,-46.348c45.851,123.978 100.967,242.933 156.738,362.703c29.799,64.046 68.877,132.779 87.913,200.556c-45.965,15.688 -75.004,37.547 -106.041,74.568c16.836,20.616 16.358,19.994 15.593,46.683c-12.054,49.41 -6.792,108.291 -6.601,159.23c-145.775,-175.252 -333.153,-605.494 -437.822,-825.517c-41.35,-86.909 -79.801,-187.45 -134.86,-266.132c-154.686,-302.148 -277.87,-630.557 -404.66,-945.812c-65.749,-163.486 -121.314,-337.018 -212.906,-488.011Z" style="fill:#7d1318;fill-rule:nonzero;"/><path d="M3456.57,5351.04c57.527,-8.945 105.654,-22.002 158.627,-46.348c45.851,123.978 100.967,242.933 156.738,362.703c29.799,64.046 68.877,132.779 87.913,200.556c-45.965,15.688 -75.004,37.547 -106.041,74.568c-73.612,-52.996 -249.109,-483.094 -297.237,-591.479Z" style="fill:#32363e;fill-rule:nonzero;"/><path d="M5329.17,4421.88c74.138,156.982 224.663,419.862 266.419,576.986l-580.478,294.449c-119.913,60.507 -261.923,117.999 -368.251,199.695c-101.451,23.102 -237.913,123.452 -334.197,173.866c-109.39,58.45 -289.569,137.562 -383.27,207.252c-22.146,-106.233 -211.701,-485.916 -270.686,-617.499c199.8,-81.744 395.238,-196.347 588.38,-293.778l1082.08,-540.971Z" style="fill:#32363e;fill-rule:nonzero;"/><path d="M9972.18,87.567c227.198,10.317 461.57,58.181 681.833,113.345c905.06,226.667 1728.14,711.712 2358.17,1402.22c315.876,346.216 617.5,782.894 801.793,1214.09c-95.806,41.872 -303.202,11.264 -415.27,18.87c8.61,191.979 19.897,399.093 -2.727,590.155c-0.765,176.094 3.635,353.792 -2.965,529.667l-6.745,86.813l-667.96,-2.008c-9.279,-101.212 -5.071,-205.292 -10.619,-307.1l-3.539,-7.175c-38.027,-32.42 -79.831,-59.961 -120.774,-88.435c-5.166,-40.728 -17.124,-75.186 -31.042,-113.446c-58.02,-137.199 -255.61,-386.595 -346.394,-516.747c-297.413,-426.276 -591.91,-849.653 -908.743,-1261.92c-179.654,-257.035 -378.774,-502.768 -573.829,-748.199c-220.119,-276.97 -439.424,-554.06 -670.879,-821.732c-27.79,-23.089 -54.767,-46.856 -81.648,-70.973l1.339,-17.419Z" style="fill:#32363e;fill-rule:nonzero;"/><path d="M12707.2,3266.83c225.19,-23.356 462.241,-9.289 688.768,-9.567c-2.008,56.461 -1.243,112.514 0,168.979c-0.765,176.094 3.635,353.792 -2.965,529.667l-6.745,86.813l-667.96,-2.008c-9.279,-101.212 -5.071,-205.292 -10.619,-307.1l-3.539,-7.175c13.918,-150.41 -2.058,-307.764 3.06,-459.609Z" style="fill:#0b0d10;fill-rule:nonzero;"/><path d="M9972.18,87.567c227.198,10.317 461.57,58.181 681.833,113.345c905.06,226.667 1728.14,711.712 2358.17,1402.22c315.876,346.216 617.5,782.894 801.793,1214.09c-95.806,41.872 -303.202,11.264 -415.27,18.87c-21.046,111.767 -4.114,249.75 -1.77,363.799c-175.014,-308.344 -370.977,-599.63 -591,-877.778c-602.195,-761.299 -1526.43,-1543.25 -2390.55,-1983.97c-105.899,-54.011 -247.048,-148.722 -362.895,-162.181c-27.79,-23.089 -54.767,-46.856 -81.648,-70.973l1.339,-17.419Z" style="fill:#0b0d10;fill-rule:nonzero;"/><path d="M14909.8,3711.45c168.079,87.952 278.042,224.749 335.822,405.312c77.917,243.603 71.269,528.054 72.034,782.086c2.918,917.64 -105.994,2047.51 -534.944,2872.88c-165.974,319.367 -434.019,676.905 -794.426,787.682c-124.839,38.408 -242.121,22.289 -355.96,-40.274c-229.779,-126.274 -406.994,-408.669 -482.28,-653.516l-47.114,-13.633l-6.552,20.042l-9.902,-14.205c-36.352,-20.664 -83.512,-12.102 -123.452,-6.889l-5.213,-0.86c-2.009,-200.46 4.065,-401.59 0.095,-601.907l-76.912,-2.296c2.631,-56.154 12.531,-135.409 -12.101,-186.637l91.5,-96.619c32.238,-46.444 67.873,-101.019 116.374,-131.296c77.677,-122.686 169.896,-236.237 247.142,-359.833c314.012,-502.323 509.163,-1029.09 588.85,-1616.12l633.187,3.539c116.709,0.623 237.578,7.606 353.808,-1.29l5.356,-16.024c-0.621,-137.275 0.717,-274.359 3.205,-411.539c0.526,-239.443 -2.105,-479.267 1.483,-718.605Z" style="fill:#fff;fill-rule:nonzero;"/><path d="M12960.4,6962.62c32.238,-46.444 67.873,-101.019 116.374,-131.296c-2.009,136.75 -2.2,273.354 -1.148,410.104c-38.026,6.266 -73.374,6.696 -111.877,5.979l-5.836,0.765l-76.912,-2.296c2.631,-56.154 12.531,-135.409 -12.101,-186.637l91.5,-96.619Z" style="fill:#191d22;fill-rule:nonzero;"/><path d="M12960.4,6962.62c7.223,94.706 4.258,189.937 3.349,284.787l-5.836,0.765l-76.912,-2.296c2.631,-56.154 12.531,-135.409 -12.101,-186.637l91.5,-96.619Z" style="fill:#535a63;fill-rule:nonzero;"/><path d="M13161,7469.53l44.196,10.954c26.689,-29.13 21.045,-114.078 63.853,-118.335c26.69,-2.678 61.655,6.84 82.079,24.538c28.268,70.073 44.292,314.92 5.836,380.162c-11.624,19.754 -38.361,28.985 -60.412,31.472c-26.02,2.918 -29.224,-2.056 -47.161,-18.366c-8.036,-29.417 -16.263,-57.302 -28.364,-85.332c-24.729,-6.361 -35.874,0.575 -59.837,8.227c3.922,-46.587 -50.175,-103.267 -41.756,-167.696c4.497,-34.486 13.776,-45.583 41.566,-65.624Z" style="fill:#0b0d10;fill-rule:nonzero;"/><path d="M13075.6,7241.43c27.55,-0.144 57.684,-3.252 80.452,15.401c6.983,5.692 9.183,9.375 14.253,16.12c-0.478,64.476 -2.726,125.557 -13.823,189.267l4.497,7.318c-27.79,20.041 -37.069,31.138 -41.566,65.624c-8.419,64.429 45.678,121.109 41.756,167.696c-15.258,51.562 -10.666,109.247 -11.144,162.77l-47.114,-13.633l-6.552,20.042l-9.902,-14.205c-36.352,-20.664 -83.512,-12.102 -123.452,-6.889l-5.213,-0.86c-2.009,-200.46 4.065,-401.59 0.095,-601.907l5.836,-0.765c38.503,0.717 73.851,0.287 111.877,-5.979Z" style="fill:#7d1318;fill-rule:nonzero;"/><path d="M13170.3,7272.95c-0.478,64.476 -2.726,125.557 -13.823,189.267l4.497,7.318c-27.79,20.041 -37.069,31.138 -41.566,65.624c-8.419,64.429 45.678,121.109 41.756,167.696c-15.258,51.562 -10.666,109.247 -11.144,162.77l-47.114,-13.633c-16.166,-63.614 -17.889,-452.099 -13.679,-540.06c22.433,-24.299 50.271,-28.651 81.073,-38.982Z" style="fill:#c22e2f;fill-rule:nonzero;"/><path d="M12707.7,3733.61c5.548,101.808 1.34,205.888 10.619,307.1l667.96,2.008l2.679,308.463c0.048,43 -5.835,93.175 -0.956,135.171c18.414,122.543 -2.679,245.086 22.528,367.772c166.739,0.24 335.918,-8.179 502.227,1.244c-79.687,587.031 -274.838,1113.8 -588.85,1616.12c-77.246,123.596 -169.465,237.147 -247.142,359.833c-48.501,30.277 -84.136,84.852 -116.374,131.296l-91.5,96.619c-92.936,81.935 -175.206,175.779 -269.098,257.331c-416.705,362.129 -1046.26,806.146 -1610.42,829.774c-89.301,-146.889 -250.922,-334.722 -358.447,-477.88l-825.851,-1090.69c-117.043,-153.155 -253.17,-304.444 -351.894,-469.414c-27.407,-18.271 -44.482,-56.44 -58.927,-84.757c108.768,-95.567 242.599,-173.914 362.464,-255.322l622.809,-425.076l1725.27,-1201.61c123.5,-85.809 246.57,-172.622 371.887,-255.801c70.216,-46.635 175.875,-92.219 231.024,-152.174Z" style="fill:#f8b1b1;fill-rule:nonzero;"/><path d="M12707.7,3733.61c5.548,101.808 1.34,205.888 10.619,307.1l667.96,2.008l2.679,308.463c0.048,43 -5.835,93.175 -0.956,135.171c-61.128,230.02 -152.534,454.443 -248.196,671.979c-386.906,879.852 -946.052,1662.7 -1586.51,2374.57c-130.435,144.881 -318.268,379.349 -482.471,476.207c-10.954,6.41 -15.785,8.323 -27.982,14.062c39.03,-107.764 98.101,-213.422 146.172,-317.79c88.774,-192.472 174.2,-386.427 259.292,-580.573c292.343,-671.693 559.528,-1350.22 806.337,-2039.95c141.102,-394.416 291.004,-804.232 382.697,-1212.42c-341.659,254.271 -695.034,493.76 -1044.82,736.647c-296.792,206.056 -590.905,417.661 -890.519,619.508c-381.022,256.663 -770.797,506.676 -1144.21,773.955c-30.182,21.62 -63.616,43.861 -82.078,76.722l9.853,30.325l-32.382,-1.244c-27.407,-18.271 -44.482,-56.44 -58.927,-84.757c108.768,-95.567 242.599,-173.914 362.464,-255.322l622.809,-425.076l1725.27,-1201.61c123.5,-85.809 246.57,-172.622 371.887,-255.801c70.216,-46.635 175.875,-92.219 231.024,-152.174Z" style="fill:url(#_Linear5);"/><path d="M13388,4486.35c18.414,122.543 -2.679,245.086 22.528,367.772c166.739,0.24 335.918,-8.179 502.227,1.244c-79.687,587.031 -274.838,1113.8 -588.85,1616.12c-77.246,123.596 -169.465,237.147 -247.142,359.833c-48.501,30.277 -84.136,84.852 -116.374,131.296l-91.5,96.619c-92.936,81.935 -175.206,175.779 -269.098,257.331c-416.705,362.129 -1046.26,806.146 -1610.42,829.774c-89.301,-146.889 -250.922,-334.722 -358.447,-477.88l-825.851,-1090.69c-117.043,-153.155 -253.17,-304.444 -351.894,-469.414l32.382,1.244c15.259,16.979 33.147,42.904 51.801,54.479c119.147,35.347 338.932,253.122 451.191,335.535c340.079,249.583 735.881,433.971 1138.95,556.036c101.306,30.661 214.618,65.625 320.803,69.165c-85.092,194.146 -170.518,388.101 -259.292,580.573c-48.071,104.368 -107.142,210.026 -146.172,317.79c12.197,-5.739 17.028,-7.652 27.982,-14.062c164.203,-96.858 352.036,-331.326 482.471,-476.207c640.458,-711.869 1199.6,-1494.72 1586.51,-2374.57c95.662,-217.536 187.068,-441.959 248.196,-671.979Z" style="fill:#0b0d10;fill-rule:nonzero;"/><path d="M9537.35,6164.08c119.147,35.347 338.932,253.122 451.191,335.535c340.079,249.583 735.881,433.971 1138.95,556.036c101.306,30.661 214.618,65.625 320.803,69.165c-85.092,194.146 -170.518,388.101 -259.292,580.573c-48.071,104.368 -107.142,210.026 -146.172,317.79l-44.435,79.544c-117.904,-188.933 -269.29,-367.391 -404.413,-544.797l-562.445,-738.368c-166.356,-215.48 -339.409,-431.532 -494.191,-655.478Z" style="fill:#f48684;fill-rule:nonzero;"/><path d="M9090.8,2138.95c39.988,-76.827 63.377,-168.046 90.21,-250.477l138.519,-422.856c133.496,-398.342 313.629,-782.292 506.197,-1155.05c36.447,-70.608 75.047,-167.658 128.474,-226.212l17.984,3.21l-1.339,17.419c26.881,24.117 53.858,47.884 81.648,70.973c231.455,267.672 450.76,544.762 670.879,821.732c195.055,245.431 394.175,491.164 573.829,748.199c316.833,412.266 611.33,835.643 908.743,1261.92c90.784,130.152 288.374,379.548 346.394,516.747c13.918,38.26 25.876,72.718 31.042,113.446c40.943,28.474 82.747,56.015 120.774,88.435l3.539,7.175c-55.149,59.955 -160.808,105.539 -231.024,152.174c-125.317,83.179 -248.387,169.992 -371.887,255.801l-1725.27,1201.61l-622.809,425.076c-119.865,81.408 -253.696,159.755 -362.464,255.322c-89.923,-743.151 -163.392,-1486.02 -223.659,-2232.18c-42.139,-521.339 -82.365,-1045.01 -95.28,-1568.07c1.675,-29.842 7.606,-55.623 15.497,-84.398Z" style="fill:#da3e40;fill-rule:nonzero;"/><path d="M9090.8,2138.95c228.585,83.556 451.479,181.719 680.35,264.846c929.646,365.424 1861.59,730.921 2781.19,1120.76c13.918,38.26 25.876,72.718 31.042,113.446c-288.134,-131.966 -591.48,-240.031 -885.545,-358.322l-1390.88,-565.263l-758.984,-304.306c-153.92,-63.343 -312.337,-143.795 -472.667,-186.766c1.675,-29.842 7.606,-55.623 15.497,-84.398Z" style="fill:#191d22;fill-rule:nonzero;"/><path d="M9771.15,2403.79c92.601,-56.407 222.32,-79.501 323.291,-124.548l798.062,-356.657c133.592,-59.359 267.806,-125.911 404.698,-176.698c316.833,412.266 611.33,835.643 908.743,1261.92c90.784,130.152 288.374,379.548 346.394,516.747c-919.601,-389.842 -1851.54,-755.339 -2781.19,-1120.76Z" style="fill:#f48684;fill-rule:nonzero;"/><path d="M9090.8,2138.95c39.988,-76.827 63.377,-168.046 90.21,-250.477l138.519,-422.856c133.496,-398.342 313.629,-782.292 506.197,-1155.05c36.447,-70.608 75.047,-167.658 128.474,-226.212l17.984,3.21l-1.339,17.419c26.881,24.117 53.858,47.884 81.648,70.973c231.455,267.672 450.76,544.762 670.879,821.732c195.055,245.431 394.175,491.164 573.829,748.199c-136.892,50.787 -271.106,117.339 -404.698,176.698l-798.062,356.657c-100.971,45.047 -230.69,68.141 -323.291,124.548c-228.871,-83.127 -451.765,-181.29 -680.35,-264.846Z" style="fill:#da3e40;fill-rule:nonzero;"/><path d="M4602.76,6181.53c53.81,-7.27 106.042,-14.062 158.082,-30.085c3.922,84.47 9.901,169.418 10.905,253.935c-50.318,-10.954 -98.101,-22.05 -146.315,-40.561c-15.832,-56.106 -15.593,-124.792 -22.672,-183.289Z" style="fill:#a51e22;fill-rule:nonzero;"/><path d="M7500.8,11784.5l17.411,3.492c2.152,74.377 3.922,148.851 7.557,223.18c-53.905,0.335 -125.509,-7.797 -176.688,5.883l-32.573,2.822c11.193,-75.19 1.387,-158.368 -2.296,-234.276c62.181,0.526 124.409,-0.574 186.589,-1.101Z" style="fill:#da3e40;fill-rule:nonzero;"/><path d="M4734.72,13714.8c58.545,9.757 119.291,6.314 178.506,5.835c0.717,87.675 4.065,176.258 -0.431,263.885c-60.124,-0.048 -119.53,-0.957 -179.51,-5.501c6.027,-85.857 1.866,-174.488 -0.334,-260.488l1.769,-3.731Z" style="fill:#a51e22;fill-rule:nonzero;"/><path d="M4612.47,6657.55l169.466,-23.436c-5.741,74.042 9.566,284.451 -21.477,338.405c-11.719,2.2 -20.95,4.4 -32.907,3.3c-34.009,-13.489 -77.057,-9.184 -113.695,-10.044l-1.387,-308.225Z" style="fill:#a51e22;fill-rule:nonzero;"/><path d="M4857.32,9575.3l111.973,-5.452c0.335,173.244 17.554,364.377 -4.974,535.373c-20.09,11.766 -57.446,12.436 -80.07,7.749c-11.575,-2.392 -18.128,-7.127 -22.337,-17.985c-15.115,-38.695 -6.123,-105.993 -5.213,-148.18c2.869,-65.433 0.764,-131.632 0.526,-197.16l0.095,-174.345Z" style="fill:#191d22;fill-rule:nonzero;"/><path d="M4312.66,5666.87c96.284,-50.414 232.746,-150.764 334.197,-173.866c30.563,47.018 89.443,115.799 71.363,175.349c-10.714,35.395 -47.401,58.784 -77.534,76.482c0.909,116.372 -2.344,233.654 13.058,349.167c31.856,3.396 69.403,2.917 95.423,22.958l11.671,34.487c-52.04,16.023 -104.272,22.815 -158.082,30.085c-61.893,2.823 -125.222,9.041 -186.924,1.052c-1.722,-25.732 -8.275,-54.766 6.505,-77.294c14.684,-0 29.081,-0.67 43.766,-1.77l13.392,-16.98c12.532,-57.78 21.955,-191.899 -9.279,-240.782c-19.946,-5.931 -40.513,-11.718 -59.549,-20.137c-59.837,-26.498 -76.913,-102.837 -98.007,-158.751Z" style="fill:url(#_Linear6);"/><path d="M4725.64,9562.38c29.416,-0.526 63.95,-6.744 88.488,11.91c16.932,64.716 -40.035,120.821 3.683,191.85c16.023,-3.395 25.302,-8.657 39.413,-16.501c0.238,65.528 2.343,131.727 -0.526,197.16l-58.355,8.178c3.971,71.987 41.518,274.312 -9.614,328.122c-12.149,12.771 -42.617,14.588 -60.075,15.162l-39.605,-16.597c-14.205,2.44 -29.894,1.913 -44.387,2.583c-3.396,-63.472 -30.755,-124.983 -47.353,-186.111c-52.04,-191.564 -40.561,-348.737 24.49,-535.23l103.841,-0.526Z" style="fill:#a51e22;fill-rule:nonzero;"/><path d="M4781.12,9955.98c-10.666,0.144 -25.924,1.435 -36.734,-1.052c-21.285,-4.927 -41.135,-23.341 -50.797,-42.905c-11.192,-22.672 -14.827,-44.674 -6.361,-69.02c9.279,-26.738 24.729,-35.586 47.783,-48.022c35.873,36.017 58.449,68.924 57.589,121.73c-0.24,14.876 -5.023,26.164 -11.48,39.269Z" style="fill:#191d22;fill-rule:nonzero;"/><path d="M4817.81,9766.14c16.023,-3.395 25.302,-8.657 39.413,-16.501c0.238,65.528 2.343,131.727 -0.526,197.16l-58.355,8.178l-17.219,1.005c6.457,-13.105 11.24,-24.393 11.48,-39.269c0.86,-52.806 -21.716,-85.713 -57.589,-121.73c27.407,-13.967 52.997,-21.476 82.796,-28.843Z" style="fill:#32363e;fill-rule:nonzero;"/><path d="M4771.74,6405.39c30.995,1.291 70.599,8.083 97.671,-8.227c7.223,-38.6 -0.86,-98.102 36.065,-121.873c27.216,-17.554 69.547,-26.02 101.115,-16.358c28.555,8.704 45.44,32.524 55.484,59.166c29.225,77.869 34.821,329.939 -6.84,401.925c-11.383,19.707 -26.164,34.39 -48.883,40.083c-26.881,6.792 -67.634,3.492 -90.64,-13.249c-39.939,-29.13 -25.542,-89.493 -63.376,-120.009c-24.299,0.765 -46.444,3.252 -70.407,7.271l-169.466,23.436c-11.767,-4.974 -24.824,-11.862 -34.774,-20.089c-27.072,-22.384 -42.091,-59.214 -41.948,-93.939c0.192,-72.369 41.853,-129.24 89.684,-178.698c48.214,18.511 95.997,29.607 146.315,40.561Z" style="fill:#191d22;fill-rule:nonzero;"/><path d="M4555.5,6966.73l58.354,-0.956c36.638,0.86 79.686,-3.445 113.695,10.044c-6.984,351.606 -1.866,704.025 -1.914,1055.73l0,1530.84l-103.841,0.526l-58.88,-0.908c-4.831,-864.643 14.253,-1730.82 -7.414,-2595.27Z" style="fill:#191d22;fill-rule:nonzero;"/><path d="M4555.5,6966.73l58.354,-0.956c20.902,166.93 9.04,347.444 13.058,516.145c11.288,479.65 10.475,960.113 8.37,1439.86c-0.622,138.136 16.741,525.999 -13.488,641.128l-58.88,-0.908c-4.831,-864.643 14.253,-1730.82 -7.414,-2595.27Z" style="fill:#32363e;fill-rule:nonzero;"/></g><defs><linearGradient id="_Linear1" x1="0" y1="0" x2="1" y2="0" gradientUnits="userSpaceOnUse" gradientTransform="matrix(561.58,-108.061,-108.061,-561.58,4211.21,8209)"><stop offset="0" style="stop-color:#454c5a;stop-opacity:1"/><stop offset="1" style="stop-color:#576060;stop-opacity:1"/></linearGradient><linearGradient id="_Linear2" x1="0" y1="0" x2="1" y2="0" gradientUnits="userSpaceOnUse" gradientTransform="matrix(-622.254,-309.699,-309.699,622.254,6056.78,15143.6)"><stop offset="0" style="stop-color:#444c52;stop-opacity:1"/><stop offset="1" style="stop-color:#5b646f;stop-opacity:1"/></linearGradient><linearGradient id="_Linear3" x1="0" y1="0" x2="1" y2="0" gradientUnits="userSpaceOnUse" gradientTransform="matrix(1746.3,-762.322,-762.322,-1746.3,13730.3,5548.59)"><stop offset="0" style="stop-color:#060606;stop-opacity:1"/><stop offset="1" style="stop-color:#0f1924;stop-opacity:1"/></linearGradient><linearGradient id="_Linear4" x1="0" y1="0" x2="1" y2="0" gradientUnits="userSpaceOnUse" gradientTransform="matrix(-1469.37,5189.63,5189.63,1469.37,8885.46,17192.5)"><stop offset="0" style="stop-color:#13151a;stop-opacity:1"/><stop offset="1" style="stop-color:#2e3239;stop-opacity:1"/></linearGradient><linearGradient id="_Linear5" x1="0" y1="0" x2="1" y2="0" gradientUnits="userSpaceOnUse" gradientTransform="matrix(2412.83,-1420.26,-1420.26,-2412.83,10133.6,4808.07)"><stop offset="0" style="stop-color:#0b1f32;stop-opacity:1"/><stop offset="1" style="stop-color:#373c43;stop-opacity:1"/></linearGradient><linearGradient id="_Linear6" x1="0" y1="0" x2="1" y2="0" gradientUnits="userSpaceOnUse" gradientTransform="matrix(284.508,-529.682,-529.682,-284.508,4417.32,5616.79)"><stop offset="0" style="stop-color:#100d0b;stop-opacity:1"/><stop offset="1" style="stop-color:#131a21;stop-opacity:1"/></linearGradient></defs></svg>